<svg xmlns="http://www.w3.org/2000/svg" viewBox="0 24.950000762939453 377.95001220703125 53.38999557495117" data-asc="1.4150390625" width="377.95001220703125" height="53.38999557495117"><defs/><g><g fill="currentColor"><g transform="translate(0, 0)"><path d="M25.85 14.65Q26.42 14.65 26.79 14.98Q27.17 15.31 27.17 16.24Q27.17 16.89 27.00 17.96Q26.83 19.02 26.61 20.09Q26.39 21.17 26.18 22.06Q25.98 22.95 25.90 23.29Q25.85 23.51 25.72 24.05Q25.59 24.58 25.38 25.24Q25.17 25.90 24.94 26.61Q24.71 27.32 24.46 27.91Q24.22 28.49 23.99 28.87Q23.75 29.25 23.56 29.25Q23.44 29.25 23.35 29.13Q23.27 29.00 23.27 28.59Q23.27 28.17 23.34 27.43Q23.41 26.68 23.49 25.77Q23.56 24.85 23.63 23.86Q23.71 22.88 23.71 22.00Q23.71 20.65 23.43 19.89Q23.14 19.12 22.62 18.71Q22.09 18.31 21.35 18.20Q20.61 18.09 19.70 18.09Q18.51 18.09 17.05 18.25Q15.60 18.41 14.31 18.75Q13.23 19.02 12.90 19.68Q12.57 20.34 12.57 21.39Q12.57 21.56 12.60 22.75Q12.62 23.95 12.67 25.83Q12.72 27.71 12.78 30.14Q12.84 32.57 12.92 35.18Q13.60 35.13 14.31 35.05Q15.01 34.96 15.50 34.74Q16.02 34.52 16.37 34.17Q16.72 33.81 16.94 33.41Q17.16 33.01 17.30 32.59Q17.43 32.18 17.50 31.84Q17.90 30.27 18.12 29.63Q18.33 28.98 18.70 28.98Q19.17 28.98 19.17 29.88Q19.17 30.32 19.07 30.93Q18.97 31.54 18.84 32.31Q18.70 33.08 18.60 34.01Q18.51 34.94 18.51 35.99Q18.51 36.94 18.54 37.94Q18.58 38.94 18.63 39.79Q18.68 40.65 18.71 41.32Q18.75 41.99 18.75 42.29Q18.75 43.12 18.59 43.53Q18.43 43.95 18.16 43.95Q17.87 43.95 17.68 43.49Q17.48 43.04 17.46 41.75Q17.43 40.80 17.35 40.00Q17.26 39.21 17.03 38.61Q16.80 38.01 16.38 37.61Q15.97 37.21 15.31 36.99Q14.89 36.87 14.25 36.83Q13.60 36.79 12.96 36.79Q13.04 39.40 13.12 41.99Q13.21 44.58 13.28 46.79Q13.35 49.00 13.43 50.66Q13.50 52.32 13.55 53.08Q13.62 54.25 13.84 54.97Q14.06 55.69 14.43 56.13Q14.79 56.57 15.28 56.79Q15.77 57.01 16.41 57.18Q16.63 57.25 16.89 57.30Q17.16 57.35 17.42 57.45Q17.68 57.54 17.85 57.68Q18.02 57.81 18.02 58.03Q18.02 58.25 17.88 58.37Q17.75 58.50 17.54 58.56Q17.33 58.62 17.10 58.63Q16.87 58.64 16.65 58.64Q16.28 58.64 15.63 58.56Q14.97 58.47 14.11 58.39Q13.26 58.30 12.28 58.22Q11.30 58.13 10.30 58.13Q9.40 58.13 8.57 58.19Q7.74 58.25 6.86 58.34Q5.98 58.42 5.03 58.48Q4.08 58.54 2.95 58.54Q2.27 58.54 1.86 58.47Q1.44 58.40 1.22 58.29Q1.00 58.18 0.93 58.03Q0.85 57.89 0.85 57.74Q0.85 57.18 1.76 57.03Q1.98 57.01 2.47 56.97Q2.95 56.93 3.55 56.88Q4.15 56.84 4.79 56.75Q5.42 56.67 5.91 56.54Q6.42 56.40 6.93 56.14Q7.45 55.88 7.84 55.43Q8.23 54.98 8.47 54.24Q8.72 53.49 8.72 52.34Q8.72 50.39 8.56 47.85Q8.40 45.31 8.14 42.57Q7.89 39.82 7.56 37.05Q7.23 34.28 6.87 31.80Q6.52 29.32 6.18 27.36Q5.83 25.39 5.57 24.24Q5.35 23.32 4.93 22.74Q4.52 22.17 3.99 21.84Q3.47 21.51 2.84 21.35Q2.22 21.19 1.56 21.09Q0.85 20.97 0.43 20.78Q0 20.58 0 20.14Q0 19.73 0.33 19.58Q0.66 19.43 1.12 19.43Q3.20 19.43 6.32 19.14Q9.45 18.85 13.40 17.94Q16.46 17.26 18.52 16.65Q20.58 16.04 21.97 15.60Q23.36 15.16 24.26 14.90Q25.15 14.65 25.85 14.65ZM30.22 39.14Q29.32 39.14 28.53 38.79Q27.73 38.45 27.15 37.77Q26.56 37.08 26.22 36.06Q25.88 35.03 25.88 33.64Q25.88 32.13 26.31 30.68Q26.73 29.22 27.64 28.09Q28.54 26.95 29.94 26.27Q31.35 25.59 33.33 25.59Q34.96 25.59 36.22 26.01Q37.48 26.44 38.43 27.16Q39.38 27.88 40.05 28.83Q40.72 29.79 41.19 30.82Q41.65 31.86 41.96 32.92Q42.26 33.98 42.48 34.94Q42.60 35.47 42.79 36.46Q42.97 37.45 43.19 38.75Q43.41 40.04 43.65 41.52Q43.90 42.99 44.14 44.51Q44.38 46.02 44.62 47.45Q44.85 48.88 45.04 50.06Q45.24 51.25 45.37 52.09Q45.51 52.93 45.58 53.25Q45.73 54.00 45.91 54.79Q46.09 55.57 46.37 56.21Q46.66 56.86 47.07 57.28Q47.49 57.69 48.12 57.69Q48.49 57.69 48.75 57.52Q49.02 57.35 49.18 57.06Q49.34 56.76 49.41 56.40Q49.49 56.03 49.49 55.64Q49.49 55.18 49.46 54.70Q49.44 54.22 49.44 53.88Q49.44 53.52 49.54 53.25Q49.63 52.98 49.93 52.98Q50.20 52.98 50.35 53.28Q50.51 53.59 50.60 53.99Q50.68 54.39 50.71 54.80Q50.73 55.20 50.73 55.40Q50.73 56.25 50.59 57.32Q50.44 58.40 49.98 59.40Q49.54 60.42 48.51 61.08Q47.49 61.74 46.14 61.74Q44.97 61.74 44.13 61.40Q43.29 61.06 42.69 60.55Q42.09 60.03 41.69 59.45Q41.28 58.86 41.04 58.35Q40.36 57.03 40.00 55.46Q39.65 53.88 39.43 52.44Q39.06 53.05 38.32 53.96Q37.57 54.86 36.47 55.69Q35.38 56.52 33.94 57.10Q32.50 57.69 30.74 57.69Q28.78 57.69 27.40 57.14Q26.03 56.59 25.15 55.65Q24.27 54.71 23.85 53.45Q23.44 52.20 23.44 50.78Q23.44 49.27 24.00 47.73Q24.56 46.19 25.84 44.95Q27.12 43.70 29.19 42.92Q31.25 42.14 34.23 42.14Q34.91 42.14 35.56 42.20Q36.21 42.26 36.73 42.33Q37.26 42.41 37.63 42.48Q38.01 42.55 38.18 42.58Q38.04 40.48 37.82 38.38Q37.72 37.50 37.61 36.52Q37.50 35.55 37.38 34.56Q37.26 33.57 37.11 32.62Q36.96 31.67 36.79 30.83Q36.40 28.96 35.27 27.84Q34.13 26.73 32.37 26.73Q31.42 26.73 30.70 27.08Q29.98 27.42 29.48 27.95Q28.98 28.49 28.74 29.16Q28.49 29.83 28.49 30.49Q28.49 31.20 28.83 31.68Q29.17 32.15 29.68 32.52Q30.18 32.89 30.76 33.22Q31.35 33.54 31.85 33.97Q32.35 34.40 32.69 35.00Q33.03 35.60 33.03 36.50Q33.03 37.70 32.21 38.42Q31.40 39.14 30.22 39.14M38.38 44.09Q38.21 44.02 37.78 43.91Q37.35 43.80 36.77 43.69Q36.18 43.58 35.51 43.51Q34.84 43.43 34.18 43.43Q32.89 43.43 31.77 43.80Q30.66 44.17 29.86 44.89Q29.05 45.61 28.59 46.69Q28.13 47.78 28.13 49.19Q28.13 50.49 28.55 51.33Q28.98 52.17 29.65 52.66Q30.32 53.15 31.14 53.34Q31.96 53.54 32.74 53.54Q33.98 53.54 35.11 53.15Q36.23 52.76 37.08 52.25Q37.94 51.73 38.48 51.25Q39.01 50.76 39.14 50.59Q38.96 48.95 38.82 47.61Q38.75 47.02 38.68 46.46Q38.62 45.90 38.56 45.41Q38.50 44.92 38.45 44.58Q38.40 44.24 38.38 44.09ZM62.96 27.88Q62.96 28.15 62.76 28.32Q62.55 28.49 62.18 28.78Q61.72 29.13 61.36 29.55Q61.01 29.98 61.01 30.69Q61.01 31.32 61.27 32.45Q61.52 33.57 61.96 34.96Q62.40 36.35 62.96 37.93Q63.53 39.50 64.11 41.08Q64.70 42.65 65.28 44.13Q65.87 45.61 66.36 46.78Q66.85 47.95 67.19 48.75Q67.53 49.56 67.63 49.78Q67.97 50.59 68.31 50.59Q68.51 50.59 68.63 50.42Q68.75 50.24 68.82 50.05Q68.90 49.85 69.15 49.00Q69.41 48.14 69.75 46.92Q70.09 45.70 70.48 44.26Q70.87 42.82 71.19 41.46Q71.51 40.09 71.72 38.94Q71.92 37.79 71.92 37.13Q71.92 36.74 71.84 36.49Q71.75 36.23 71.59 36.07Q71.44 35.91 71.24 35.83Q71.04 35.74 70.83 35.69Q70.53 35.62 70.06 35.58Q69.58 35.55 69.14 35.47Q68.70 35.40 68.38 35.27Q68.07 35.13 68.07 34.84Q68.07 34.50 68.41 34.41Q68.75 34.33 69.12 34.33Q69.51 34.33 70.48 34.44Q71.46 34.55 73.12 34.55Q73.61 34.55 74.27 34.46Q74.93 34.38 75.60 34.27Q76.27 34.16 76.87 34.07Q77.47 33.98 77.83 33.98Q78.20 33.98 78.49 34.06Q78.78 34.13 78.78 34.40Q78.78 34.59 78.56 34.73Q78.34 34.86 78.00 34.97Q77.66 35.08 77.23 35.16Q76.81 35.23 76.37 35.33Q75.83 35.45 75.46 35.66Q75.10 35.86 74.85 36.13Q74.61 36.40 74.44 36.72Q74.27 37.04 74.12 37.38Q73.78 38.26 73.47 39.17Q73.17 40.09 72.80 41.26Q72.44 42.43 71.97 43.93Q71.51 45.43 70.87 47.49Q70.73 47.92 70.43 48.86Q70.14 49.80 69.75 50.98Q69.36 52.15 68.93 53.39Q68.51 54.64 68.09 55.68Q67.68 56.71 67.33 57.37Q66.99 58.03 66.77 58.03Q66.53 58.03 66.00 57.20Q65.48 56.37 64.75 54.99Q64.01 53.61 63.15 51.81Q62.28 50 61.36 48.02Q60.45 46.04 59.53 44.04Q58.62 42.04 57.82 40.27Q57.03 38.50 56.38 37.11Q55.74 35.72 55.37 34.94Q55.08 34.30 54.76 33.91Q54.44 33.52 54.11 33.30Q53.78 33.08 53.44 33.01Q53.10 32.93 52.78 32.93Q52.42 32.93 52.00 33.06Q51.59 33.18 51.21 33.34Q50.83 33.50 50.48 33.62Q50.12 33.74 49.88 33.74Q49.68 33.74 49.50 33.62Q49.32 33.50 49.32 33.23Q49.32 32.91 49.68 32.74Q50.05 32.54 50.83 32.28Q51.61 32.01 52.60 31.67Q53.59 31.32 54.66 30.92Q55.74 30.52 56.71 30.08Q57.91 29.54 58.80 29.05Q59.69 28.56 60.38 28.20Q61.06 27.83 61.55 27.61Q62.04 27.39 62.43 27.39Q62.72 27.39 62.84 27.54Q62.96 27.69 62.96 27.88ZM98.07 43.80Q98.41 44.36 98.69 45.31Q98.97 46.26 98.97 47.24Q98.97 49.02 98.39 50.43Q97.80 51.83 96.70 52.80Q95.61 53.76 94.06 54.27Q92.50 54.79 90.58 54.79Q87.79 54.79 85.61 53.85Q83.42 52.91 81.93 51.22Q80.44 49.54 79.66 47.20Q78.88 44.87 78.88 42.09Q78.88 39.58 79.42 37.52Q79.96 35.47 80.88 33.86Q81.81 32.25 83.03 31.05Q84.25 29.86 85.62 29.08Q86.99 28.30 88.40 27.92Q89.82 27.54 91.14 27.54Q92.43 27.54 93.82 27.88Q95.21 28.22 96.37 29.05Q97.53 29.88 98.28 31.24Q99.02 32.59 99.02 34.64Q99.02 36.43 98.50 37.77Q97.97 39.11 97.12 40.09Q96.26 41.06 95.18 41.70Q94.09 42.33 92.96 42.71Q91.82 43.09 90.73 43.24Q89.65 43.38 88.82 43.38Q87.62 43.38 86.49 43.21Q85.35 43.04 84.72 42.85Q84.81 44.75 85.31 46.52Q85.82 48.29 86.74 49.63Q87.67 50.98 89.05 51.78Q90.43 52.59 92.29 52.59Q93.58 52.59 94.52 52.15Q95.46 51.71 96.07 50.96Q96.68 50.22 96.97 49.24Q97.27 48.27 97.27 47.19Q97.27 46.56 97.18 45.87Q97.09 45.19 96.88 44.58Q96.73 44.21 96.63 43.90Q96.53 43.58 96.53 43.38Q96.53 42.90 96.97 42.90Q97.19 42.90 97.50 43.12Q97.80 43.33 98.07 43.80M84.62 41.24Q85.25 41.43 86.06 41.56Q86.87 41.70 88.09 41.70Q89.50 41.70 90.70 41.16Q91.89 40.63 92.75 39.66Q93.60 38.70 94.09 37.33Q94.58 35.96 94.58 34.28Q94.58 32.79 94.25 31.77Q93.92 30.76 93.38 30.15Q92.85 29.54 92.15 29.28Q91.46 29.03 90.72 29.03Q89.79 29.03 88.72 29.59Q87.65 30.15 86.73 31.54Q85.82 32.93 85.22 35.29Q84.62 37.65 84.62 41.24ZM110.57 11.08Q110.57 11.35 110.57 12.35Q110.57 13.35 110.58 14.75Q110.60 16.14 110.61 17.72Q110.62 19.31 110.67 20.78Q110.72 22.83 110.84 25.51Q110.96 28.20 111.10 31.09Q111.23 33.98 111.39 36.91Q111.55 39.84 111.71 42.40Q111.87 44.95 111.99 46.92Q112.11 48.90 112.18 49.93Q112.28 51.37 112.57 52.20Q112.87 53.03 113.39 53.52Q113.92 54.00 114.71 54.27Q115.50 54.54 116.63 54.83Q117.04 54.96 117.16 55.10Q117.29 55.25 117.29 55.44Q117.29 55.66 117.11 55.82Q116.94 55.98 116.48 55.98Q116.26 55.98 115.59 55.93Q114.92 55.88 114.01 55.81Q113.11 55.74 112.05 55.69Q110.99 55.64 109.99 55.64Q109.18 55.64 108.28 55.71Q107.37 55.79 106.52 55.86Q105.66 55.93 104.92 56.01Q104.17 56.08 103.69 56.08Q103.34 56.08 103.02 55.96Q102.69 55.83 102.69 55.40Q102.69 54.74 103.64 54.74Q104.27 54.74 105.07 54.66Q105.86 54.59 106.37 54.39Q106.79 54.25 107.03 53.98Q107.28 53.71 107.41 53.38Q107.54 53.05 107.59 52.70Q107.64 52.34 107.64 51.98Q107.64 51.54 107.58 50.57Q107.52 49.61 107.42 48.32Q107.32 47.02 107.19 45.46Q107.06 43.90 106.91 42.25Q106.76 40.60 106.62 38.96Q106.47 37.33 106.32 35.86Q106.18 34.40 106.07 33.20Q105.96 32.01 105.88 31.25Q105.76 30.13 105.64 28.92Q105.52 27.71 105.40 26.54Q105.27 25.37 105.13 24.29Q104.98 23.22 104.83 22.34Q104.69 21.48 104.33 21.01Q103.98 20.53 103.27 20.53Q102.71 20.53 101.97 20.80Q101.22 21.07 100.46 21.39Q99.71 21.70 99.04 21.97Q98.36 22.24 97.97 22.24Q97.71 22.24 97.50 22.11Q97.29 21.97 97.29 21.63Q97.29 21.17 97.78 20.85Q98.00 20.68 98.36 20.51Q98.73 20.34 99.33 20.03Q99.93 19.73 100.81 19.21Q101.68 18.70 102.93 17.85Q104.25 16.94 105.32 15.94Q106.40 14.94 107.24 14.00Q108.08 13.06 108.65 12.28Q109.23 11.50 109.52 11.04Q109.79 10.67 109.94 10.45Q110.08 10.23 110.28 10.23Q110.47 10.23 110.52 10.51Q110.57 10.79 110.57 11.08ZM125.02 39.14Q124.12 39.14 123.33 38.79Q122.53 38.45 121.95 37.77Q121.36 37.08 121.02 36.06Q120.68 35.03 120.68 33.64Q120.68 32.13 121.11 30.68Q121.53 29.22 122.44 28.09Q123.34 26.95 124.74 26.27Q126.15 25.59 128.13 25.59Q129.76 25.59 131.02 26.01Q132.28 26.44 133.23 27.16Q134.18 27.88 134.85 28.83Q135.52 29.79 135.99 30.82Q136.45 31.86 136.76 32.92Q137.06 33.98 137.28 34.94Q137.40 35.47 137.59 36.46Q137.77 37.45 137.99 38.75Q138.21 40.04 138.45 41.52Q138.70 42.99 138.94 44.51Q139.18 46.02 139.42 47.45Q139.65 48.88 139.84 50.06Q140.04 51.25 140.17 52.09Q140.31 52.93 140.38 53.25Q140.53 54.00 140.71 54.79Q140.89 55.57 141.17 56.21Q141.46 56.86 141.87 57.28Q142.29 57.69 142.92 57.69Q143.29 57.69 143.55 57.52Q143.82 57.35 143.98 57.06Q144.14 56.76 144.21 56.40Q144.29 56.03 144.29 55.64Q144.29 55.18 144.26 54.70Q144.24 54.22 144.24 53.88Q144.24 53.52 144.34 53.25Q144.43 52.98 144.73 52.98Q145.00 52.98 145.15 53.28Q145.31 53.59 145.40 53.99Q145.48 54.39 145.51 54.80Q145.53 55.20 145.53 55.40Q145.53 56.25 145.39 57.32Q145.24 58.40 144.78 59.40Q144.34 60.42 143.31 61.08Q142.29 61.74 140.94 61.74Q139.77 61.74 138.93 61.40Q138.09 61.06 137.49 60.55Q136.89 60.03 136.49 59.45Q136.08 58.86 135.84 58.35Q135.16 57.03 134.80 55.46Q134.45 53.88 134.23 52.44Q133.86 53.05 133.12 53.96Q132.37 54.86 131.27 55.69Q130.18 56.52 128.74 57.10Q127.29 57.69 125.54 57.69Q123.58 57.69 122.20 57.14Q120.83 56.59 119.95 55.65Q119.07 54.71 118.65 53.45Q118.24 52.20 118.24 50.78Q118.24 49.27 118.80 47.73Q119.36 46.19 120.64 44.95Q121.92 43.70 123.99 42.92Q126.05 42.14 129.03 42.14Q129.71 42.14 130.36 42.20Q131.01 42.26 131.53 42.33Q132.06 42.41 132.43 42.48Q132.81 42.55 132.98 42.58Q132.84 40.48 132.62 38.38Q132.52 37.50 132.41 36.52Q132.30 35.55 132.18 34.56Q132.06 33.57 131.91 32.62Q131.76 31.67 131.59 30.83Q131.20 28.96 130.07 27.84Q128.93 26.73 127.17 26.73Q126.22 26.73 125.50 27.08Q124.78 27.42 124.28 27.95Q123.78 28.49 123.54 29.16Q123.29 29.83 123.29 30.49Q123.29 31.20 123.63 31.68Q123.97 32.15 124.48 32.52Q124.98 32.89 125.56 33.22Q126.15 33.54 126.65 33.97Q127.15 34.40 127.49 35.00Q127.83 35.60 127.83 36.50Q127.83 37.70 127.01 38.42Q126.20 39.14 125.02 39.14M133.18 44.09Q133.01 44.02 132.58 43.91Q132.15 43.80 131.57 43.69Q130.98 43.58 130.31 43.51Q129.64 43.43 128.98 43.43Q127.69 43.43 126.57 43.80Q125.46 44.17 124.66 44.89Q123.85 45.61 123.39 46.69Q122.92 47.78 122.92 49.19Q122.92 50.49 123.35 51.33Q123.78 52.17 124.45 52.66Q125.12 53.15 125.94 53.34Q126.76 53.54 127.54 53.54Q128.78 53.54 129.91 53.15Q131.03 52.76 131.88 52.25Q132.74 51.73 133.28 51.25Q133.81 50.76 133.94 50.59Q133.76 48.95 133.62 47.61Q133.54 47.02 133.48 46.46Q133.42 45.90 133.36 45.41Q133.30 44.92 133.25 44.58Q133.20 44.24 133.18 44.09ZM157.76 31.98Q157.50 30.37 156.76 29.43Q156.03 28.49 155.27 28.08Q154.66 27.73 154.06 27.56Q153.47 27.39 153.03 27.25Q152.56 27.08 152.34 26.88Q152.12 26.68 152.12 26.34Q152.12 25.63 153.08 25.63Q153.52 25.63 153.93 25.73Q154.35 25.83 154.93 25.95Q155.52 26.07 156.32 26.23Q157.13 26.39 158.33 26.49Q159.42 26.59 160.18 26.60Q160.94 26.61 161.46 26.62Q161.99 26.64 162.35 26.67Q162.72 26.71 163.01 26.83Q163.45 27.03 164.17 27.78Q164.89 28.54 165.78 29.64Q166.67 30.74 167.68 32.08Q168.68 33.42 169.67 34.80Q170.65 36.18 171.59 37.48Q172.53 38.77 173.30 39.77Q174.07 40.77 174.62 41.38Q175.17 41.99 175.37 41.99Q175.78 41.99 176.99 39.73Q178.20 37.48 180.42 32.98Q181.03 31.74 181.68 30.33Q182.32 28.93 182.95 27.55Q183.57 26.17 184.13 24.90Q184.69 23.63 185.17 22.66Q185.64 21.68 186.01 21.08Q186.38 20.48 186.57 20.43Q186.69 20.39 186.83 20.39Q186.96 20.39 187.13 20.39Q187.57 20.39 188.35 20.41Q189.14 20.43 190.38 20.43Q191.14 20.43 191.75 20.37Q192.36 20.31 192.83 20.24Q193.31 20.17 193.70 20.10Q194.09 20.04 194.43 20.04Q194.95 20.04 195.10 20.19Q195.26 20.34 195.26 20.53Q195.26 20.97 194.53 21.19Q193.82 21.41 192.54 21.64Q191.26 21.88 189.67 22.44Q188.70 22.78 188.31 23.67Q187.92 24.56 187.92 25.88Q187.92 26.83 188.07 28.31Q188.23 29.79 188.51 31.58Q188.79 33.37 189.18 35.39Q189.58 37.40 190.03 39.44Q190.48 41.48 190.98 43.41Q191.48 45.34 191.99 46.97Q192.50 48.61 193.01 49.84Q193.51 51.07 193.97 51.68Q194.41 52.27 194.86 52.69Q195.31 53.10 195.86 53.39Q196.41 53.69 197.06 53.91Q197.71 54.13 198.51 54.35Q199.29 54.54 199.58 54.76Q199.88 54.98 199.88 55.30Q199.88 55.64 199.48 55.86Q199.07 56.08 198.22 56.08Q197.19 56.08 196.08 56.01Q194.97 55.93 193.63 55.93Q191.46 55.93 189.66 56.25Q187.87 56.57 186.39 56.96Q184.91 57.35 183.72 57.67Q182.52 57.98 181.52 57.98Q181.25 57.98 180.98 57.89Q180.71 57.79 180.71 57.45Q180.71 57.08 181.15 56.85Q181.59 56.62 182.29 56.41Q182.98 56.20 183.84 55.98Q184.69 55.76 185.52 55.40Q186.38 55.00 186.76 54.38Q187.13 53.76 187.13 52.78Q187.13 52.22 186.95 51.03Q186.77 49.83 186.47 48.24Q186.18 46.66 185.80 44.82Q185.42 42.99 185.02 41.16Q184.62 39.33 184.22 37.63Q183.81 35.94 183.50 34.64Q183.18 33.35 182.95 32.57Q182.71 31.79 182.67 31.79Q182.59 31.79 182.21 32.45Q181.84 33.11 181.27 34.20Q180.71 35.30 180.00 36.72Q179.30 38.13 178.58 39.62Q177.86 41.11 177.15 42.58Q176.44 44.04 175.85 45.25Q175.27 46.46 174.88 47.28Q174.49 48.10 174.37 48.29Q174.12 48.75 173.85 49.27Q173.58 49.78 173.30 50.21Q173.02 50.63 172.78 50.92Q172.53 51.20 172.36 51.20Q172.22 51.20 171.98 50.96Q171.75 50.73 171.51 50.39Q171.26 50.05 171.01 49.66Q170.75 49.27 170.58 48.95Q169.95 47.85 169.09 46.35Q168.24 44.85 167.30 43.20Q166.36 41.55 165.44 39.89Q164.53 38.23 163.73 36.83Q162.94 35.42 162.38 34.41Q161.82 33.40 161.62 33.03Q161.21 32.30 160.91 31.80Q160.62 31.30 160.41 31.01Q160.21 30.71 160.06 30.58Q159.91 30.44 159.77 30.44Q159.57 30.44 159.57 30.83Q159.57 31.23 159.64 31.90Q159.72 32.57 159.77 33.08Q160.01 35.45 160.10 37.51Q160.18 39.58 160.18 41.48Q160.18 43.19 159.99 45.18Q159.79 47.17 159.33 49.16Q158.86 51.15 158.07 52.98Q157.28 54.81 156.05 56.23Q154.83 57.64 153.16 58.48Q151.49 59.33 149.27 59.33Q147.97 59.33 146.97 58.91Q145.97 58.50 145.28 57.80Q144.58 57.10 144.23 56.21Q143.87 55.32 143.87 54.35Q143.87 53.66 144.06 52.98Q144.24 52.29 144.65 51.77Q145.07 51.25 145.70 50.92Q146.34 50.59 147.27 50.59Q148.00 50.59 148.57 50.84Q149.15 51.10 149.60 51.48Q150.05 51.86 150.42 52.32Q150.78 52.78 151.07 53.20Q152.10 54.59 153.32 54.59Q154.39 54.59 155.18 53.93Q155.96 53.27 156.53 52.16Q157.10 51.05 157.47 49.61Q157.84 48.17 158.04 46.61Q158.25 45.04 158.34 43.47Q158.42 41.89 158.42 40.53Q158.42 38.11 158.23 35.91Q158.03 33.72 157.76 31.98ZM204.93 29.59Q205.08 29.59 205.20 29.81Q205.32 30.03 205.47 30.93Q205.81 32.98 206.05 34.64Q206.30 36.30 206.57 37.70Q207.15 40.89 207.73 43.41Q208.30 45.92 209.08 47.66Q209.86 49.39 211.00 50.29Q212.13 51.20 213.87 51.20Q215.11 51.20 216.04 50.62Q216.97 50.05 217.61 49.08Q218.26 48.12 218.68 46.88Q219.09 45.63 219.32 44.30Q219.56 42.97 219.64 41.64Q219.73 40.31 219.73 39.18Q219.73 38.13 219.68 37.11Q219.63 36.08 219.34 35.27Q219.04 34.45 218.42 33.95Q217.80 33.45 216.63 33.45Q215.92 33.45 215.19 33.57Q214.45 33.69 213.77 33.69Q213.43 33.69 213.20 33.54Q212.96 33.40 212.96 33.08Q212.96 32.71 213.23 32.58Q213.50 32.45 213.92 32.40Q214.36 32.37 214.94 32.32Q215.53 32.28 216.22 32.17Q216.92 32.06 217.70 31.87Q218.48 31.69 219.31 31.35Q220.00 31.05 220.62 30.66Q221.24 30.27 221.74 29.92Q222.24 29.57 222.62 29.32Q223.00 29.08 223.22 29.08Q223.49 29.08 223.57 29.50Q223.66 29.93 223.73 30.69Q223.83 31.71 223.94 33.37Q224.05 35.03 224.21 37.04Q224.37 39.04 224.57 41.22Q224.78 43.41 225.07 45.53Q225.22 46.66 225.49 47.35Q225.76 48.05 226.12 48.44Q226.49 48.83 226.94 48.96Q227.39 49.10 227.93 49.10Q229.03 49.10 229.94 48.91Q230.86 48.73 231.32 48.73Q231.79 48.73 231.93 48.90Q232.08 49.07 232.08 49.29Q232.08 49.51 231.93 49.72Q231.79 49.93 231.32 50.05Q230.64 50.20 229.44 50.33Q228.25 50.46 226.61 50.68Q225.29 50.88 224.35 51.11Q223.41 51.34 222.88 51.34Q222.34 51.34 222.06 51.10Q221.78 50.85 221.63 50.15Q221.48 49.44 221.34 48.60Q221.19 47.75 221.06 46.90Q220.92 46.04 220.79 45.19Q220.65 44.34 220.53 43.58Q220.34 44.90 220.04 46.31Q219.75 47.73 219.27 49.08Q218.80 50.44 218.13 51.65Q217.46 52.86 216.50 53.76Q215.55 54.66 214.29 55.20Q213.04 55.74 211.43 55.74Q208.79 55.74 206.92 54.33Q205.05 52.93 204.08 50.34Q203.52 48.93 203.17 47.34Q202.83 45.75 202.61 44.24Q202.39 42.72 202.26 41.42Q202.12 40.11 201.98 39.23Q201.83 38.33 201.60 37.73Q201.37 37.13 201.07 36.79Q200.78 36.45 200.43 36.32Q200.07 36.18 199.68 36.18Q199.29 36.18 198.84 36.29Q198.39 36.40 197.94 36.54Q197.49 36.67 197.07 36.78Q196.66 36.89 196.31 36.89Q196.09 36.89 195.86 36.76Q195.63 36.62 195.63 36.23Q195.63 35.79 196.02 35.63Q196.41 35.47 197.02 35.28Q197.78 35.06 198.82 34.62Q199.85 34.18 201.03 33.40Q202.00 32.74 202.65 32.07Q203.30 31.40 203.72 30.85Q204.15 30.30 204.43 29.94Q204.71 29.59 204.93 29.59ZM242.14 25.44Q243.14 25.44 243.84 25.54Q244.53 25.63 245.03 25.77Q245.53 25.90 245.90 26.00Q246.26 26.10 246.63 26.10Q247.05 26.10 247.28 25.66Q247.51 25.22 247.73 24.58Q248.05 23.73 248.49 23.73Q248.88 23.73 248.99 23.97Q249.10 24.22 249.10 24.44Q249.10 24.73 249.04 25.04Q248.97 25.34 248.85 25.83Q248.73 26.32 248.57 27.05Q248.41 27.78 248.24 28.88Q248.10 29.79 248.01 30.44Q247.92 31.10 247.89 31.62Q247.85 32.13 247.80 32.54Q247.75 32.96 247.68 33.40Q247.53 34.33 247.05 34.33Q246.73 34.33 246.63 34.02Q246.53 33.72 246.53 33.35L246.53 31.45Q246.53 30.00 246.20 29.03Q245.87 28.05 245.30 27.47Q244.73 26.88 243.93 26.64Q243.14 26.39 242.24 26.39Q241.43 26.39 240.69 26.66Q239.94 26.93 239.38 27.45Q238.82 27.98 238.48 28.74Q238.13 29.49 238.13 30.44Q238.13 31.69 238.72 32.86Q239.31 34.03 240.26 35.16Q241.21 36.28 242.42 37.41Q243.63 38.55 244.91 39.75Q246.19 40.94 247.40 42.24Q248.61 43.53 249.56 44.98Q250.51 46.44 251.10 48.07Q251.68 49.71 251.68 51.59Q251.68 54.10 250.90 56.04Q250.12 57.98 248.80 59.30Q247.49 60.62 245.73 61.30Q243.97 61.99 241.99 61.99Q240.63 61.99 239.44 61.69Q238.26 61.40 237.27 60.94Q236.28 60.47 235.50 59.88Q234.72 59.28 234.18 58.69Q233.18 57.57 232.47 56.98Q231.76 56.40 230.93 56.40Q230.49 56.40 229.98 56.71Q229.47 57.03 228.97 57.40Q228.47 57.76 228.03 58.08Q227.59 58.40 227.29 58.40Q227.03 58.40 226.90 58.24Q226.78 58.08 226.78 57.93Q226.78 57.64 227.15 57.30Q227.29 57.15 227.72 56.76Q228.15 56.37 228.78 55.74Q229.42 55.10 230.21 54.17Q231.01 53.25 231.88 52.03Q232.71 50.88 233.25 49.87Q233.79 48.85 234.18 48.11Q234.57 47.36 234.88 46.92Q235.18 46.48 235.55 46.48Q235.91 46.48 236.02 46.70Q236.13 46.92 236.13 47.19Q236.13 47.56 235.86 48.14Q235.60 48.73 235.29 49.56Q234.99 50.39 234.72 51.49Q234.45 52.59 234.45 53.98Q234.45 54.79 234.77 55.86Q235.08 56.93 235.79 57.89Q236.50 58.84 237.66 59.51Q238.82 60.18 240.48 60.18Q241.80 60.18 242.86 59.69Q243.92 59.20 244.68 58.31Q245.43 57.42 245.84 56.19Q246.24 54.96 246.24 53.44Q246.24 51.51 245.34 49.72Q244.43 47.92 243.07 46.20Q241.70 44.48 240.11 42.82Q238.53 41.16 237.16 39.51Q235.79 37.87 234.89 36.21Q233.98 34.55 233.98 32.84Q233.98 30.93 234.69 29.53Q235.40 28.13 236.56 27.22Q237.72 26.32 239.17 25.88Q240.63 25.44 242.14 25.44ZM259.42 17.58Q260.86 17.58 261.72 18.33Q262.57 19.09 262.57 20.48Q262.57 21.41 262.28 22.03Q261.99 22.66 261.52 23.03Q261.06 23.41 260.51 23.57Q259.96 23.73 259.42 23.73Q258.96 23.73 258.45 23.58Q257.93 23.44 257.50 23.08Q257.06 22.73 256.77 22.16Q256.49 21.58 256.49 20.73Q256.49 19.82 256.79 19.23Q257.08 18.63 257.52 18.26Q257.96 17.90 258.47 17.74Q258.98 17.58 259.42 17.58M262.89 25.59Q263.13 25.59 263.13 26.15Q263.13 26.51 263.05 27.36Q262.96 28.20 262.84 29.15Q262.65 30.66 262.45 32.51Q262.26 34.35 262.07 36.29Q261.89 38.23 261.73 40.14Q261.57 42.04 261.45 43.66Q261.33 45.29 261.25 46.52Q261.18 47.75 261.18 48.34Q261.18 49.10 261.28 49.58Q261.38 50.07 261.52 50.39Q261.67 50.71 261.85 50.90Q262.04 51.10 262.23 51.25Q262.45 51.39 262.77 51.51Q263.09 51.64 263.45 51.75Q263.82 51.86 264.20 51.93Q264.58 52.00 264.89 52.03Q265.41 52.12 265.72 52.17Q266.04 52.22 266.04 52.49Q266.04 52.98 264.99 52.98Q264.26 52.98 263.53 52.87Q262.79 52.76 262.02 52.61Q261.25 52.47 260.42 52.36Q259.59 52.25 258.64 52.25Q257.76 52.25 257.06 52.29Q256.35 52.34 255.76 52.42Q255.18 52.49 254.66 52.54Q254.15 52.59 253.64 52.59Q253.22 52.59 252.88 52.48Q252.54 52.37 252.54 52.03Q252.54 51.68 252.92 51.55Q253.30 51.42 253.69 51.34Q254.17 51.25 254.64 51.12Q255.10 51.00 255.48 50.74Q255.86 50.49 256.12 50.06Q256.37 49.63 256.45 48.95Q256.54 47.61 256.59 46.22Q256.64 44.82 256.67 43.47Q256.69 42.11 256.69 40.83Q256.69 39.55 256.69 38.43Q256.69 37.08 256.69 35.97Q256.69 34.86 256.64 34.08Q256.59 32.84 256.36 32.13Q256.13 31.42 255.70 31.08Q255.27 30.74 254.61 30.63Q253.96 30.52 253.03 30.44Q252.76 30.40 252.60 30.27Q252.44 30.15 252.44 29.88Q252.44 29.42 253.17 29.35Q253.54 29.32 254.10 29.26Q254.66 29.20 255.41 29.08Q256.15 28.96 257.03 28.72Q257.91 28.49 258.89 28.08Q259.96 27.64 260.66 27.20Q261.35 26.76 261.79 26.40Q262.23 26.05 262.48 25.82Q262.72 25.59 262.89 25.59ZM283.28 35.23Q282.50 35.23 281.82 34.99Q281.15 34.74 280.66 34.24Q280.18 33.74 279.90 32.97Q279.61 32.20 279.61 31.18Q279.61 30.44 279.53 29.76Q279.44 29.08 279.17 28.54Q278.91 28.00 278.41 27.67Q277.91 27.34 277.08 27.34Q276.07 27.34 275.10 27.97Q274.12 28.59 273.34 29.83Q272.56 31.08 272.07 32.93Q271.58 34.79 271.58 37.23Q271.58 40.21 272.18 42.54Q272.78 44.87 273.91 46.50Q275.05 48.12 276.68 48.97Q278.32 49.83 280.37 49.83Q281.71 49.83 282.78 49.37Q283.84 48.90 284.55 48.12Q285.25 47.34 285.63 46.28Q286.01 45.21 286.01 44.04Q286.01 42.80 285.71 41.94Q285.40 41.09 285.05 40.49Q284.69 39.89 284.39 39.49Q284.08 39.09 284.08 38.79Q284.08 38.43 284.47 38.43Q284.84 38.43 285.41 38.82Q285.99 39.21 286.54 39.95Q287.08 40.70 287.48 41.77Q287.87 42.85 287.87 44.19Q287.87 46.39 287.15 48.08Q286.43 49.78 285.16 50.94Q283.89 52.10 282.13 52.70Q280.37 53.30 278.32 53.30Q275.93 53.30 273.95 52.39Q271.97 51.49 270.54 49.79Q269.12 48.10 268.32 45.67Q267.53 43.24 267.53 40.19Q267.53 38.72 267.80 37.28Q268.07 35.84 268.53 34.53Q268.99 33.23 269.60 32.10Q270.21 30.98 270.92 30.13Q271.97 28.86 273.07 27.99Q274.17 27.12 275.31 26.60Q276.44 26.07 277.65 25.85Q278.86 25.63 280.13 25.63Q281.52 25.63 282.74 26.03Q283.96 26.42 284.85 27.12Q285.74 27.83 286.25 28.82Q286.77 29.81 286.77 31.03Q286.77 32.20 286.45 33.00Q286.13 33.79 285.62 34.29Q285.11 34.79 284.48 35.01Q283.86 35.23 283.28 35.23Z"/></g><g transform="translate(0, 81.8603515625)"><path d=""/></g></g></g></svg>