<?xml version="1.0" encoding="UTF-8" standalone="no"?>
<svg
   version="1.0"
   width="1499.000000pt"
   height="1474.000000pt"
   viewBox="0 0 1499.000000 1474.000000"
   preserveAspectRatio="xMidYMid meet"
   id="svg240"
   sodipodi:docname="test.svg"
   inkscape:version="1.2.2 (732a01da63, 2022-12-09)"
   xmlns:inkscape="http://www.inkscape.org/namespaces/inkscape"
   xmlns:sodipodi="http://sodipodi.sourceforge.net/DTD/sodipodi-0.dtd"
   xmlns="http://www.w3.org/2000/svg"
   xmlns:svg="http://www.w3.org/2000/svg">
  <defs
     id="defs244" />
  <sodipodi:namedview
     id="namedview242"
     pagecolor="#ffffff"
     bordercolor="#000000"
     borderopacity="0.25"
     inkscape:showpageshadow="2"
     inkscape:pageopacity="0.0"
     inkscape:pagecheckerboard="0"
     inkscape:deskcolor="#d1d1d1"
     inkscape:document-units="pt"
     showgrid="false"
     inkscape:zoom="0.39942334"
     inkscape:cx="1000.1919"
     inkscape:cy="965.1414"
     inkscape:window-width="1920"
     inkscape:window-height="1001"
     inkscape:window-x="-9"
     inkscape:window-y="-9"
     inkscape:window-maximized="1"
     inkscape:current-layer="svg240" />
  <g
     transform="matrix(0.1,0,0,-0.1,-69.475159,1455.223)"
     fill="none"
     stroke="#41ff6f"
     stroke-width="20"
     id="g238">
    <path
       d="m 9735,13309 c 176,-22 355,-89 499,-189 155,-107 327,-316 408,-496 35,-78 39,-81 100,-64 69,20 221,28 318,18 278,-28 473,-180 488,-380 6,-84 -19,-168 -88,-298 -161,-303 -192,-388 -170,-469 11,-42 27,-51 114,-66 74,-12 281,-5 411,15 315,48 354,52 388,46 78,-15 71,-75 -20,-163 -71,-69 -210,-144 -301,-162 -75,-16 -198,-14 -267,4 -134,34 -264,119 -321,209 -18,29 -42,50 -68,62 -58,25 -136,85 -185,141 -65,75 -152,264 -226,493 -88,271 -145,441 -157,462 -8,17 -11,17 -46,3 -177,-74 -297,-219 -321,-389 -16,-114 16,-316 85,-531 44,-138 38,-130 122,-165 253,-105 521,-302 699,-515 210,-249 294,-472 294,-780 -1,-170 -17,-291 -82,-614 -56,-276 -71,-446 -49,-542 29,-125 124,-246 262,-336 77,-49 378,-203 398,-203 17,0 183,113 255,173 281,235 409,518 431,956 l 6,126 -114,58 c -148,75 -218,130 -252,198 -14,29 -26,68 -26,87 0,143 132,253 239,198 45,-24 97,-89 121,-152 26,-70 60,-224 60,-276 0,-68 12,-83 97,-118 120,-50 324,-153 400,-203 245,-160 388,-409 343,-598 -10,-42 -24,-64 -64,-104 -52,-51 -110,-84 -296,-164 -186,-80 -270,-184 -270,-335 0,-107 55,-190 169,-254 l 40,-23 -14,28 c -35,66 -2,131 90,178 49,25 72,30 144,33 75,2 91,0 126,-20 75,-44 94,-142 42,-219 -34,-51 -80,-72 -166,-79 l -75,-5 99,-80 c 155,-123 266,-239 303,-315 59,-119 64,-223 17,-326 -49,-110 -155,-184 -312,-220 -101,-23 -270,-26 -283,-4 -18,29 -19,29 108,86 87,39 146,91 158,139 41,166 -247,496 -693,793 -214,143 -639,382 -678,382 -24,0 -428,-247 -488,-298 -185,-158 -221,-336 -112,-557 52,-105 122,-195 205,-262 128,-104 245,-157 502,-229 330,-92 416,-125 528,-199 118,-78 246,-228 319,-372 28,-56 35,-63 68,-69 68,-12 127,-47 194,-114 154,-152 201,-364 119,-535 -42,-88 -159,-207 -242,-248 -83,-40 -173,-60 -235,-54 -94,10 -159,47 -348,201 -110,89 -156,111 -230,111 -147,-1 -303,-158 -336,-339 -24,-132 40,-288 175,-421 116,-116 247,-173 335,-147 79,24 141,103 141,180 0,73 -39,89 -243,100 -164,9 -208,22 -229,67 -28,63 23,111 117,109 109,-2 246,-74 360,-189 114,-114 161,-239 137,-366 -49,-265 -374,-578 -603,-581 -92,-1 -142,30 -305,191 -150,146 -226,205 -330,252 -63,29 -253,83 -261,75 -8,-7 76,-245 116,-330 l 38,-83 49,-7 c 166,-22 271,-125 249,-243 -7,-38 -40,-73 -69,-73 -52,0 -135,82 -211,206 -37,61 -45,69 -69,66 -45,-6 -93,-30 -115,-58 -28,-35 -27,-73 5,-235 31,-153 26,-213 -21,-275 -62,-82 -241,-127 -353,-90 -91,31 -120,83 -167,301 -24,114 -52,157 -122,192 -50,24 -70,28 -144,28 -78,0 -91,-3 -161,-38 -90,-44 -149,-104 -196,-198 l -31,-64 34,-18 c 22,-11 35,-25 35,-37 0,-24 -18,-26 -48,-4 -13,9 -26,14 -29,10 -11,-11 -22,-93 -23,-167 0,-132 42,-226 127,-280 121,-76 233,3 221,154 -4,38 -14,76 -28,99 -23,40 -90,94 -152,124 -39,18 -49,40 -23,50 20,8 121,-55 172,-108 51,-52 73,-102 74,-166 3,-99 -35,-177 -100,-208 -53,-26 -140,-15 -193,23 -55,38 -104,110 -124,181 -19,66 -21,202 -3,275 11,49 11,52 -12,66 -58,38 -111,98 -142,160 -29,60 -32,73 -32,161 1,295 209,514 575,604 200,49 525,70 730,46 41,-4 76,-7 78,-6 1,2 -5,43 -13,92 -38,210 -31,424 27,824 39,271 45,542 15,650 -52,183 -172,335 -318,405 -200,95 -428,82 -668,-37 -178,-88 -271,-201 -271,-329 0,-105 30,-180 179,-444 65,-117 101,-213 101,-274 0,-51 -40,-130 -85,-170 -63,-55 -119,-76 -205,-76 -64,0 -82,4 -121,27 -40,24 -99,93 -111,130 -3,7 -35,-1 -83,-19 -170,-65 -248,-77 -485,-77 -170,0 -245,4 -360,22 -80,12 -163,24 -185,27 l -40,5 35,-11 c 19,-6 72,-22 118,-35 46,-14 131,-50 190,-79 406,-207 686,-613 831,-1205 65,-266 95,-534 115,-1010 14,-316 15,-330 54,-517 59,-280 84,-456 90,-642 5,-183 -7,-285 -39,-320 -63,-67 -118,33 -139,254 -6,61 -10,302 -10,537 1,482 9,416 -95,783 -330,1166 -745,1847 -1290,2114 -114,56 -212,91 -300,107 l -40,7 57,-61 c 31,-34 68,-85 83,-115 65,-135 6,-265 -116,-254 -62,5 -93,30 -130,104 -29,57 -31,68 -28,146 4,74 8,90 36,135 l 32,52 -26,6 c -14,4 -82,4 -152,1 -145,-6 -256,-34 -374,-93 -70,-36 -208,-131 -222,-154 -4,-7 50,-127 123,-274 218,-436 318,-736 357,-1074 65,-557 -106,-1311 -355,-1562 -89,-90 -155,-108 -240,-65 -140,72 -270,362 -334,745 -107,638 -48,1375 149,1846 60,143 109,224 208,348 l 28,34 -36,71 c -19,39 -42,71 -49,71 -32,0 -229,-76 -341,-131 -211,-104 -414,-274 -586,-491 -277,-350 -506,-785 -1036,-1973 -191,-427 -315,-697 -404,-875 -69,-140 -100,-197 -209,-395 -57,-103 -197,-312 -277,-413 -42,-53 -143,-164 -226,-246 -133,-132 -151,-147 -164,-133 -14,14 1,31 139,169 210,208 324,358 503,663 140,240 229,424 557,1155 510,1137 679,1477 913,1835 295,452 602,707 1015,845 l 105,35 -43,108 c -46,114 -74,219 -116,438 -32,166 -147,592 -174,645 -76,147 -169,195 -451,230 -64,8 -166,14 -227,14 -118,0 -233,17 -298,45 -63,27 -106,65 -152,135 -24,36 -57,85 -75,110 -48,69 -117,221 -218,483 -184,480 -251,732 -251,948 0,136 14,225 71,446 46,179 79,385 79,490 0,23 3,48 6,57 9,23 37,19 63,-8 42,-44 87,-59 157,-52 35,4 74,11 86,16 21,8 20,9 -9,9 -46,1 -73,40 -73,103 0,42 5,54 30,80 28,28 35,30 78,24 64,-9 35,7 -53,29 -83,20 -135,15 -204,-20 -38,-19 -52,-32 -61,-59 -32,-97 -112,-124 -191,-63 -53,40 -100,120 -81,138 10,11 24,7 75,-19 72,-37 78,-38 132,-13 36,16 42,24 54,72 35,137 95,199 201,207 98,7 193,-40 253,-124 17,-24 32,-42 35,-40 5,5 -6,22 -131,213 l -99,151 -53,-5 c -111,-12 -205,37 -205,107 0,45 29,113 63,148 61,64 130,86 216,70 163,-29 280,-168 348,-413 24,-88 27,-117 27,-240 -1,-238 -49,-358 -232,-585 -59,-73 -119,-150 -134,-171 l -28,-37 33,8 c 88,23 133,22 211,-4 42,-14 85,-26 95,-26 10,0 41,18 69,40 70,56 127,80 192,80 70,0 124,-25 173,-79 63,-70 81,-121 82,-233 0,-93 -1,-98 -31,-135 -44,-55 -106,-84 -173,-81 -74,4 -82,20 -43,82 28,44 30,51 19,80 -19,46 -75,71 -162,71 -38,0 -83,-4 -99,-8 -24,-7 -27,-12 -22,-35 17,-83 18,-93 6,-107 -7,-8 -29,-15 -50,-15 -42,0 -81,25 -175,112 -79,72 -153,128 -171,128 -20,0 -18,-50 5,-109 10,-28 16,-52 13,-55 -3,-4 0,-6 7,-6 7,0 11,6 8,14 -9,23 22,56 53,56 82,0 158,-167 176,-388 7,-79 8,-83 28,-77 82,27 114,28 182,10 84,-23 630,-294 664,-330 30,-31 20,-55 -28,-70 -21,-6 -32,-16 -32,-27 0,-29 -66,-94 -145,-143 -210,-131 -482,-183 -604,-115 -55,31 -91,91 -98,165 -3,30 -11,55 -17,55 -6,0 -36,-7 -66,-15 -64,-17 -143,-19 -170,-5 -25,14 -40,-13 -40,-73 0,-48 27,-97 78,-143 60,-53 245,-124 326,-124 16,0 67,13 115,29 111,37 170,46 195,28 41,-30 -9,-69 -122,-93 -37,-7 -88,-14 -114,-14 -37,0 -55,-7 -90,-33 -53,-41 -103,-113 -123,-180 -17,-56 -20,-192 -6,-230 15,-38 114,-103 199,-131 249,-82 494,-78 761,10 275,91 411,242 442,488 12,92 2,203 -37,441 -30,183 -33,337 -9,421 33,117 122,232 312,403 76,68 94,90 99,120 16,89 108,247 210,363 24,27 44,53 44,59 0,31 -179,80 -527,144 -208,38 -368,86 -475,142 -73,38 -143,106 -154,148 -7,30 9,75 28,75 7,0 32,40 55,88 98,202 187,248 478,246 130,-1 175,-5 240,-23 102,-27 211,-80 281,-137 l 54,-44 17,26 c 24,37 28,119 9,195 -19,75 -99,245 -146,308 l -32,43 -206,-5 c -269,-6 -298,-13 -682,-175 -115,-49 -160,-58 -199,-42 -53,21 -71,103 -37,168 38,74 159,161 306,222 116,48 216,71 330,77 183,9 309,-32 443,-142 41,-34 74,-54 83,-51 8,3 23,25 34,48 19,45 50,180 50,220 0,44 -21,99 -50,132 -34,38 -70,53 -228,96 -180,48 -224,73 -237,131 -8,36 24,108 88,199 41,57 44,66 29,74 -111,60 -320,215 -383,284 -125,136 -142,289 -44,388 100,100 244,97 412,-8 185,-116 264,-300 200,-470 -14,-37 -41,-91 -59,-120 -19,-29 -37,-58 -41,-64 -4,-7 44,-43 126,-95 382,-241 616,-469 747,-729 88,-174 121,-393 86,-561 -41,-192 -157,-375 -423,-667 -57,-63 -103,-117 -103,-122 0,-5 4,-20 10,-35 26,-69 -33,-175 -188,-334 -105,-107 -112,-117 -106,-146 9,-46 42,-94 83,-120 52,-35 129,-59 319,-101 333,-72 428,-137 448,-304 11,-98 -38,-241 -112,-328 l -37,-43 28,-50 c 38,-71 46,-106 35,-150 -18,-66 -78,-93 -290,-129 -151,-26 -189,-35 -257,-62 -123,-48 -162,-164 -101,-295 47,-101 140,-170 288,-213 149,-44 132,-69 -62,-93 -426,-52 -628,-186 -628,-415 0,-207 126,-370 515,-667 72,-54 168,-129 215,-166 l 85,-67 250,-5 c 211,-4 293,-10 528,-41 177,-23 319,-36 390,-36 176,0 342,31 492,91 l 50,21 v 91 c 0,71 4,100 19,127 59,111 197,172 248,110 26,-32 19,-81 -28,-180 -43,-91 -60,-110 -124,-140 -28,-13 -50,-29 -50,-37 0,-24 49,-87 87,-113 30,-21 48,-25 102,-24 114,1 216,71 241,164 21,78 -1,138 -149,406 -129,235 -154,356 -98,477 106,230 527,398 830,331 125,-28 211,-76 303,-168 63,-64 90,-101 123,-167 60,-123 73,-181 78,-359 5,-160 3,-178 -53,-590 -34,-247 -37,-538 -7,-688 l 18,-94 114,-29 c 214,-54 317,-116 516,-312 157,-156 206,-187 287,-187 135,1 342,148 461,328 109,163 129,281 69,412 l -24,55 -16,-44 c -21,-61 -97,-136 -153,-151 -129,-35 -303,49 -434,208 -122,148 -168,300 -131,438 49,184 207,332 363,342 56,4 72,0 127,-27 35,-17 112,-71 171,-120 183,-151 252,-180 372,-161 137,23 288,139 354,275 31,64 34,77 33,160 0,74 -5,101 -27,155 -34,81 -86,151 -154,206 -47,39 -126,74 -138,63 -2,-3 2,-29 10,-59 19,-69 19,-181 1,-223 -52,-125 -245,-139 -329,-25 -27,36 -25,104 3,163 28,59 126,148 187,171 26,10 50,19 51,20 6,4 -45,101 -85,162 -20,31 -75,96 -123,143 -133,134 -227,179 -570,274 -349,97 -482,160 -620,295 -119,116 -187,227 -221,357 -31,122 -23,218 26,315 60,119 165,207 435,363 74,43 143,84 153,91 17,11 -1,22 -150,98 -334,171 -459,303 -494,525 -14,90 0,218 51,471 86,428 106,624 81,812 -46,343 -284,676 -666,930 -86,57 -324,182 -332,174 -3,-2 25,-96 62,-207 74,-230 137,-475 160,-624 88,-561 -78,-1168 -398,-1461 -208,-190 -455,-215 -742,-75 -249,122 -515,386 -724,721 -295,470 -545,1201 -529,1544 5,104 23,153 67,179 61,36 130,21 374,-83 322,-137 428,-142 702,-35 361,141 452,165 630,165 108,0 244,-20 306,-45 13,-5 9,19 -22,122 -77,253 -101,417 -80,539 18,100 68,198 138,267 70,69 83,78 173,123 38,19 70,39 70,44 0,19 -83,175 -133,250 -71,106 -244,274 -342,332 -200,116 -405,164 -640,147 -117,-8 -202,-29 -300,-74 -72,-33 -155,-89 -155,-104 0,-4 18,-16 40,-26 47,-21 140,-115 167,-170 30,-60 46,-139 38,-193 -15,-106 -88,-212 -177,-256 -101,-50 -171,-25 -223,79 -29,57 -30,66 -30,190 0,144 18,219 74,307 l 29,45 -53,6 c -105,11 -271,-35 -368,-101 -93,-65 -125,-116 -193,-315 -52,-150 -76,-196 -131,-251 -92,-94 -209,-140 -348,-140 -72,0 -100,4 -142,23 -63,28 -116,84 -152,160 -23,50 -26,68 -26,172 v 117 l -47,5 c -61,8 -115,36 -211,111 -204,159 -271,193 -403,203 -178,14 -429,-61 -566,-169 -39,-31 -48,-48 -25,-48 32,0 150,-90 262,-199 195,-191 230,-212 478,-286 56,-16 87,-31 87,-40 0,-21 -11,-25 -117,-40 -261,-39 -331,-87 -469,-321 -73,-125 -135,-207 -214,-285 -139,-137 -304,-235 -453,-269 -31,-6 -74,-30 -125,-68 -42,-31 -131,-88 -196,-127 -142,-84 -212,-145 -221,-196 -4,-24 2,-67 19,-134 14,-55 26,-112 26,-128 0,-83 -48,-157 -142,-217 -81,-53 -167,-74 -271,-68 -125,8 -199,48 -349,190 l -58,54 -62,-79 c -137,-174 -365,-354 -531,-418 -173,-66 -406,-90 -549,-56 l -56,14 -51,-71 c -28,-39 -85,-114 -126,-166 -123,-156 -167,-272 -146,-387 14,-72 58,-166 103,-217 l 34,-39 51,27 c 188,95 440,108 594,30 56,-28 99,-76 99,-111 0,-39 -56,-86 -131,-108 -51,-16 -94,-20 -209,-20 -126,0 -155,3 -218,24 -41,13 -101,42 -134,63 -33,22 -67,37 -74,34 -36,-14 -143,-95 -210,-159 -138,-130 -208,-270 -184,-364 16,-66 58,-122 192,-259 82,-84 125,-137 143,-175 54,-116 32,-162 -207,-442 -117,-136 -160,-205 -184,-293 -15,-57 -16,-76 -6,-133 29,-171 192,-385 452,-593 150,-120 324,-230 558,-353 158,-83 234,-140 263,-197 56,-109 -6,-275 -158,-424 -124,-121 -259,-160 -402,-115 l -63,20 6,-37 c 3,-20 13,-85 21,-143 28,-197 61,-284 123,-326 69,-46 190,-40 327,18 l 71,29 -4,69 c -12,206 150,400 242,290 21,-25 26,-41 26,-87 0,-70 -24,-125 -79,-185 -32,-35 -88,-79 -129,-103 -2,-1 7,-23 18,-48 29,-60 120,-143 226,-206 46,-27 189,-101 317,-164 259,-127 358,-188 435,-270 65,-69 94,-131 100,-217 4,-57 1,-75 -23,-128 -30,-66 -78,-116 -147,-153 -36,-19 -59,-23 -143,-23 -55,0 -117,4 -137,8 l -38,8 v -51 c 0,-120 45,-151 219,-151 232,0 485,85 594,199 l 28,29 -41,40 c -31,32 -40,48 -40,75 0,81 106,146 168,102 18,-12 22,-25 22,-63 0,-27 -7,-65 -15,-85 l -15,-36 h 37 c 121,0 258,165 299,360 28,135 -2,240 -92,318 -25,23 -122,80 -215,127 -189,97 -229,131 -229,193 0,61 38,106 235,277 285,247 398,400 435,592 16,79 8,232 -14,298 -40,117 -137,216 -245,252 -94,31 -288,24 -561,-20 -374,-61 -503,-69 -650,-43 -192,34 -332,108 -475,251 -80,79 -110,117 -143,181 -88,170 -94,315 -21,471 61,128 178,213 295,213 h 61 l 11,68 c 22,131 61,233 257,667 213,470 272,644 294,867 11,107 1,246 -24,343 -16,65 -83,206 -114,242 -18,22 -20,22 -51,7 -45,-23 -96,-12 -137,28 -41,40 -44,80 -8,104 34,22 83,13 138,-25 l 44,-30 21,22 c 11,12 46,58 77,102 102,144 147,193 202,221 61,30 96,28 174,-12 53,-26 63,-38 55,-60 -5,-12 -16,-9 -62,16 -82,43 -131,41 -186,-7 -34,-31 -234,-287 -247,-316 -2,-5 6,-18 16,-30 61,-68 125,-238 144,-382 33,-249 -35,-526 -239,-980 -248,-552 -281,-633 -306,-757 -9,-42 -16,-83 -16,-90 0,-7 20,-24 45,-37 88,-47 140,-132 103,-169 -17,-17 -73,-15 -88,3 -7,8 -18,15 -25,15 -17,0 -53,58 -61,98 -9,45 -26,55 -87,50 -67,-6 -113,-28 -170,-83 -55,-53 -92,-121 -113,-212 -62,-269 193,-606 540,-712 170,-52 325,-49 722,15 244,39 446,52 539,35 219,-40 358,-227 358,-481 0,-255 -113,-445 -423,-713 -192,-165 -260,-238 -260,-278 0,-38 51,-76 212,-157 193,-96 271,-158 308,-244 105,-243 -96,-634 -331,-643 -56,-2 -61,-5 -119,-59 -109,-100 -296,-172 -517,-198 -80,-9 -120,-9 -179,0 -135,21 -174,64 -174,190 v 68 l -49,23 c -59,26 -101,63 -101,89 0,32 34,54 83,54 74,0 117,-41 117,-111 0,-26 4,-29 57,-40 135,-27 233,-5 305,70 111,114 97,272 -34,396 -74,70 -134,106 -339,208 l -264,132 c -189,96 -304,186 -357,280 l -29,51 -56,-24 c -140,-62 -297,-70 -373,-20 -82,54 -112,130 -150,377 -28,186 -30,192 -95,251 -63,57 -82,92 -64,114 6,8 17,14 24,14 22,0 76,-52 111,-106 45,-70 107,-98 219,-98 72,0 86,3 142,33 147,79 282,266 283,392 0,90 -41,127 -315,274 -305,164 -519,318 -710,510 -110,109 -210,249 -245,342 -34,87 -38,192 -10,273 28,84 105,198 222,330 107,122 138,161 163,209 21,42 21,110 0,152 -9,17 -76,93 -148,168 -162,168 -192,217 -192,317 0,61 5,80 38,146 57,115 218,277 363,363 15,10 13,15 -21,60 -63,83 -105,196 -105,285 0,97 48,210 140,330 138,179 190,249 190,254 0,3 -7,6 -15,6 -8,0 -32,17 -55,38 -31,31 -40,46 -40,73 0,67 100,149 181,149 79,0 80,-62 3,-236 -9,-20 129,-37 246,-31 185,9 355,67 517,179 86,59 264,231 332,321 l 44,58 -89,90 c -104,106 -199,179 -278,215 -74,34 -200,55 -277,47 -58,-6 -61,-7 -81,-47 -37,-75 -127,-203 -168,-240 -75,-67 -130,-40 -116,58 14,93 109,196 218,238 29,11 56,25 61,31 4,7 37,104 73,217 77,236 107,303 172,373 55,59 160,112 243,123 36,5 65,16 89,35 45,36 102,48 223,49 53,0 97,2 97,4 0,2 -16,46 -35,96 -47,122 -75,237 -75,302 1,206 132,329 383,357 225,25 488,-42 579,-148 96,-113 61,-268 -96,-427 -159,-159 -327,-224 -582,-224 -57,0 -104,-4 -104,-9 0,-5 9,-37 19,-72 39,-126 53,-222 53,-344 0,-220 -57,-401 -205,-644 l -52,-84 75,-69 c 88,-81 185,-142 253,-159 160,-39 383,64 417,193 11,37 9,56 -14,145 -14,57 -26,119 -26,138 0,84 54,143 218,240 148,88 243,155 237,165 -4,6 -18,10 -33,10 -45,1 -112,36 -112,60 0,25 6,25 61,1 24,-10 66,-21 92,-25 45,-5 51,-3 78,27 38,41 77,123 89,186 17,92 -12,177 -70,201 -76,32 -232,-21 -309,-105 -36,-39 -41,-50 -41,-92 0,-33 8,-60 25,-88 30,-50 31,-57 3,-53 -29,4 -65,59 -73,112 -19,123 139,263 311,274 118,7 174,-33 197,-143 15,-71 0,-145 -47,-239 l -35,-68 30,6 c 94,18 273,131 386,243 84,83 127,141 224,302 41,68 97,146 124,174 74,74 185,121 325,136 68,8 67,11 -15,30 -143,34 -243,99 -421,271 -113,110 -157,145 -215,174 l -73,36 -30,-29 c -58,-54 -110,-65 -177,-37 -86,36 -103,106 -31,125 47,14 77,14 162,0 l 69,-12 48,43 c 62,54 224,133 333,161 103,26 273,36 351,20 83,-17 164,-60 269,-142 135,-106 178,-134 233,-153 75,-25 90,-22 149,37 75,74 174,101 213,57 15,-16 16,-24 7,-45 -13,-29 -94,-72 -177,-94 -68,-19 -72,-27 -74,-127 -2,-112 45,-219 119,-273 146,-106 452,-14 542,162 11,22 40,99 64,171 53,154 91,222 159,284 111,100 320,166 462,145 57,-8 65,-7 81,10 29,34 149,107 214,131 155,58 318,76 493,55 z"
       id="path132"
       sodipodi:nodetypes="ccccccccccccccccccccccccccccscccccsccsccscsscccccccccccccccccsccccccccccccccccscccccccccccccsccccccccsccccscccccccccccccccccccccccccscscscccscccccccccccccccccccccccccccccccccccccsccccccccccccccccccsccccscscccccsccccccccccccccccsccccccccsscsccccccscccscsccscscccccscccsccscssccscccccccccccscccsccccccccccccccccccscccccccccccccccscccccccccccccccscccccsccsccccsccccccccccccccccccccccccccccccccccscccccccccccccccccccccccccscccsssccccscccccsccccccsccscccccsccsccccccccscccccccccscccccscsccccccccccsccccccccccccscccccccccsccsscccscsccscccscccccccccscccccccscccccccccccccccscscssccccccscsccccccsccsssccccccccccccscsccccccccccscccscsscssccccccccccccccccccscccccsscsccccccscccsccccccsccccccccccccccccccccccccccccccccccccccc" />
    <path
       d="m 9008,13033 c -9,-10 -26,-38 -38,-62 -92,-184 -71,-461 39,-502 67,-26 181,50 229,155 63,133 0,302 -147,397 -52,34 -62,35 -83,12 z"
       id="path134" />
    <path
       d="m 7736,12855 c -22,-8 -51,-26 -65,-41 l -26,-26 30,6 c 42,10 135,55 135,67 0,13 -28,11 -74,-6 z"
       id="path136" />
    <path
       d="m 6020,12830 c 0,-15 45,-40 81,-46 42,-6 112,32 88,47 -19,12 -169,12 -169,-1 z"
       id="path138" />
    <path
       d="m 4908,12635 c -79,-20 -145,-53 -186,-93 -91,-91 -101,-218 -34,-417 22,-66 48,-138 57,-159 l 16,-39 142,6 c 248,10 381,61 523,202 101,100 144,180 144,265 0,43 -6,66 -23,91 -46,69 -162,125 -310,149 -86,14 -261,11 -329,-5 z"
       id="path140" />
    <path
       d="m 10835,12534 c -11,-3 -46,-9 -77,-16 -32,-6 -58,-13 -58,-17 0,-16 212,-647 241,-716 77,-187 168,-303 285,-363 21,-11 21,-9 17,31 -6,53 19,162 53,230 14,28 57,108 95,177 37,69 80,163 95,208 26,77 27,89 17,147 -34,199 -249,327 -545,324 -57,-1 -112,-3 -123,-5 z"
       id="path142" />
    <path
       d="m 6922,12098 c -96,-21 -156,-122 -133,-223 26,-110 112,-201 336,-351 l 146,-99 19,25 c 11,14 39,63 62,109 40,77 43,90 43,160 0,98 -26,153 -115,242 -70,71 -137,111 -227,134 -64,17 -70,17 -131,3 z"
       id="path144" />
    <path
       d="m 4465,11873 -50,-15 55,-15 c 95,-24 132,-62 132,-136 0,-101 -85,-207 -165,-207 -79,0 -141,153 -113,277 8,33 7,33 -26,26 -70,-13 -139,-46 -187,-89 -67,-60 -116,-161 -185,-379 -29,-93 -56,-177 -60,-185 -5,-13 9,-15 91,-16 73,0 116,-6 168,-23 122,-39 188,-85 347,-239 l 96,-94 38,59 c 58,90 140,269 170,368 20,70 27,119 31,220 6,143 -7,235 -52,383 l -26,82 -107,-1 c -67,0 -126,-6 -157,-16 z"
       id="path146" />
    <path
       d="m 4370,11784 c -24,-62 -6,-174 35,-218 30,-33 45,-33 85,0 65,55 92,161 51,198 -26,23 -87,45 -129,46 -26,0 -34,-5 -42,-26 z"
       id="path148" />
    <path
       d="m 9899,11440 c -91,-16 -201,-51 -388,-125 -365,-144 -467,-143 -827,11 -187,79 -271,103 -307,87 -41,-19 -58,-55 -64,-135 -18,-237 137,-778 347,-1212 294,-607 689,-1010 1080,-1101 130,-30 274,-9 389,57 199,114 378,400 460,736 43,173 55,278 55,467 -1,251 -46,497 -153,835 -21,69 -54,171 -72,228 l -33,103 -50,14 c -149,43 -313,56 -437,35 z"
       id="path150" />
    <path
       d="m 12100,11380 c -30,-4 -131,-20 -225,-35 -187,-31 -437,-39 -507,-18 -35,10 -37,10 -28,-6 32,-60 181,-150 292,-176 163,-38 339,4 483,115 75,58 117,120 81,120 -8,0 -20,2 -28,4 -7,2 -38,0 -68,-4 z"
       id="path152" />
    <path
       d="m 7265,11342 c -69,-93 -105,-156 -105,-186 0,-54 29,-70 222,-122 149,-39 193,-60 236,-108 59,-68 66,-163 22,-326 -17,-61 -32,-93 -52,-114 l -29,-29 35,-52 c 94,-142 141,-275 141,-401 0,-85 -2,-93 -29,-128 -17,-22 -30,-53 -31,-73 -4,-72 -100,-133 -281,-179 -81,-20 -121,-24 -243,-24 -181,0 -243,10 -400,62 l -123,40 -24,-24 -24,-24 32,-31 c 61,-58 228,-128 398,-167 36,-9 153,-31 260,-51 236,-43 328,-67 398,-105 49,-26 53,-27 65,-11 6,10 51,60 99,112 222,242 351,437 393,594 93,352 -95,758 -496,1072 -92,71 -312,223 -409,280 l -35,21 z"
       id="path154" />
    <path
       d="m 3735,11048 c -79,-40 -143,-118 -159,-195 -21,-95 84,2 174,160 17,31 30,57 28,57 -1,-1 -21,-10 -43,-22 z"
       id="path156" />
    <path
       d="m 6923,10645 c -206,-37 -423,-146 -484,-244 -51,-80 -31,-149 38,-136 19,3 112,39 206,79 293,125 382,146 624,146 l 168,1 -40,35 c -54,47 -187,110 -259,123 -76,14 -162,13 -253,-4 z"
       id="path158" />
    <path
       d="m 5382,10443 c -30,-19 -51,-45 -69,-80 -43,-90 -13,-133 96,-136 32,-1 62,1 66,5 4,4 2,21 -4,39 -23,67 -4,127 50,155 41,21 86,12 126,-26 68,-64 51,-142 -41,-180 l -54,-23 90,-136 c 50,-75 105,-165 123,-201 44,-88 72,-177 59,-190 -18,-18 -38,-1 -84,73 -91,148 -182,213 -284,205 -69,-6 -111,-36 -142,-102 -29,-63 -31,-91 -6,-81 58,25 92,34 127,35 93,1 243,-60 344,-140 29,-23 54,-40 55,-38 9,10 26,105 32,174 12,140 -23,315 -89,454 -42,87 -135,181 -201,203 -76,26 -144,22 -194,-10 z"
       id="path160" />
    <path
       d="m 3340,10387 c -61,-32 -87,-69 -72,-102 10,-22 65,-65 83,-65 11,0 69,137 69,163 0,34 -21,35 -80,4 z"
       id="path162" />
    <path
       d="m 5542,10390 c -32,-13 -45,-53 -32,-101 6,-21 15,-41 20,-44 16,-10 75,14 100,40 21,22 22,27 10,55 -10,25 -56,63 -72,59 -2,0 -13,-4 -26,-9 z"
       id="path164" />
    <path
       d="m 12442,10150 c -63,-38 -92,-115 -72,-190 17,-64 86,-124 220,-194 l 113,-59 -7,69 c -20,195 -79,339 -157,379 -37,20 -58,19 -97,-5 z"
       id="path166" />
    <path
       d="m 6935,10040 c -152,-24 -210,-66 -279,-200 -26,-49 -44,-90 -41,-90 3,0 33,18 65,40 33,22 94,55 137,73 77,32 80,32 233,31 126,0 172,-5 245,-23 142,-36 286,-44 312,-17 17,17 -113,104 -207,139 -122,45 -338,67 -465,47 z"
       id="path168" />
    <path
       d="m 4455,9889 c -13,-21 36,-59 76,-59 54,0 56,15 6,44 -47,28 -72,32 -82,15 z"
       id="path170" />
    <path
       d="m 6904,9845 c -59,-13 -148,-53 -208,-94 l -29,-19 109,-35 c 60,-19 132,-38 159,-42 28,-3 64,-9 80,-12 29,-5 29,-5 14,13 -51,58 -63,134 -28,178 l 20,26 -28,-1 c -15,0 -55,-7 -89,-14 z"
       id="path172" />
    <path
       d="m 7085,9843 c -31,-8 -65,-44 -65,-70 0,-52 51,-112 108,-126 12,-3 52,1 87,8 141,30 205,102 133,149 -46,29 -205,53 -263,39 z"
       id="path174" />
    <path
       d="m 7575,9799 c -16,-6 -59,-7 -95,-4 l -66,6 4,-38 c 4,-39 -16,-71 -64,-100 -27,-16 121,24 176,48 47,21 85,52 101,82 11,20 -6,22 -56,6 z"
       id="path176" />
    <path
       d="m 5526,9664 c -16,-15 -21,-69 -10,-98 12,-31 166,-6 172,28 5,25 -35,64 -77,76 -50,14 -67,13 -85,-6 z"
       id="path178" />
    <path
       d="m 5088,9641 c 42,-40 82,-41 111,-4 26,32 23,37 -15,23 -26,-10 -67,-8 -112,7 -9,2 -2,-9 16,-26 z"
       id="path180" />
    <path
       d="m 5713,9650 c 9,-13 17,-34 17,-46 0,-17 8,-24 31,-29 57,-13 49,10 -25,68 -36,28 -38,29 -23,7 z"
       id="path182" />
    <path
       d="m 12747,9512 c -12,-234 -55,-419 -142,-597 -96,-198 -232,-340 -484,-508 l -54,-36 94,-47 c 732,-367 1279,-848 1279,-1125 0,-61 -16,-94 -70,-143 -36,-33 -66,-49 -150,-85 -41,-17 114,-1 200,20 134,34 195,73 251,161 33,50 34,57 34,148 0,88 -3,101 -33,162 -18,37 -56,93 -85,124 -61,67 -384,334 -404,334 -28,0 -137,63 -183,106 -83,78 -115,190 -86,302 32,124 103,201 255,273 277,132 290,139 325,180 40,47 61,121 52,177 -34,191 -168,358 -392,491 -60,35 -329,164 -385,184 -14,4 -17,-11 -22,-121 z"
       id="path184" />
    <path
       d="m 5670,9509 c -61,-41 -142,-63 -231,-64 -66,0 -81,3 -117,28 l -42,27 v -32 c 0,-97 -35,-308 -79,-481 -27,-106 -55,-230 -62,-276 -17,-119 -7,-291 25,-436 56,-247 290,-886 394,-1075 l 47,-85 6,91 c 7,111 44,200 113,268 l 45,46 -27,6 c -177,39 -314,120 -363,217 -25,48 -27,122 -6,164 13,24 15,38 7,58 -30,79 3,260 58,318 42,44 60,51 157,57 l 90,5 -1,80 c -2,184 -95,418 -145,368 -16,-16 -3,-47 42,-99 41,-48 46,-63 27,-82 -16,-16 -30,-15 -54,2 -18,14 -18,15 -1,28 18,14 18,14 0,29 -16,13 -17,12 -5,-2 10,-14 10,-18 -5,-23 -55,-21 -166,267 -123,319 33,39 102,5 235,-115 89,-81 131,-110 159,-110 14,0 17,5 11,23 -17,53 -17,88 -1,106 43,47 202,54 283,12 78,-39 100,-114 55,-179 l -23,-32 h 33 c 18,0 52,9 76,20 89,41 108,172 43,304 -40,82 -87,117 -165,124 -61,5 -121,-17 -177,-65 -18,-17 -44,-35 -56,-42 -27,-14 -78,-14 -103,-1 -10,5 -44,17 -76,25 -52,14 -67,13 -151,-2 -154,-27 -153,-21 36,210 106,130 207,274 198,283 -1,1 -21,5 -43,7 -33,4 -49,-1 -84,-24 z"
       id="path186" />
    <path
       d="m 3545,9353 c -105,-7 -315,-70 -315,-95 0,-16 95,-69 165,-91 57,-18 94,-22 200,-22 144,0 223,17 272,59 l 28,24 -21,28 c -46,63 -193,106 -329,97 z"
       id="path188" />
    <path
       d="m 7674,9163 c -99,-116 -160,-212 -190,-297 l -15,-40 32,29 c 66,63 175,194 197,238 15,29 22,60 20,82 l -3,35 z"
       id="path190" />
    <path
       d="m 7319,8635 c -125,-113 -192,-195 -236,-283 -34,-67 -37,-82 -41,-181 -4,-88 1,-143 29,-311 62,-388 42,-560 -81,-724 -47,-63 -136,-134 -220,-176 -64,-32 -225,-83 -320,-101 l -65,-13 76,-13 c 93,-15 167,-43 224,-84 73,-52 119,-131 160,-274 56,-193 125,-477 155,-633 31,-164 94,-362 137,-431 1,-2 53,9 115,23 171,39 339,65 516,79 l 160,12 -146,110 c -417,314 -563,465 -623,643 -31,89 -30,194 1,276 30,77 121,170 210,214 107,52 327,107 457,114 44,2 49,9 10,15 -51,8 -169,74 -218,123 -91,91 -131,229 -95,325 39,101 148,155 396,195 222,37 270,58 270,123 0,18 -11,56 -25,84 l -26,51 -66,-39 c -180,-105 -333,-60 -333,98 0,60 29,145 61,179 12,13 37,28 56,35 30,9 41,8 87,-15 49,-24 118,-87 174,-160 l 22,-29 26,24 c 40,37 94,157 104,231 18,122 -29,213 -136,263 -31,15 -153,49 -272,76 -301,70 -373,106 -419,205 -13,30 -26,54 -28,54 -1,0 -45,-38 -96,-85 z"
       id="path192" />
    <path
       d="m 5796,8346 c -21,-8 -42,-18 -46,-23 -4,-4 -10,-53 -13,-109 l -6,-101 130,5 c 151,5 228,-5 407,-55 146,-41 320,-58 292,-29 -19,20 -495,261 -575,291 -83,32 -142,38 -189,21 z"
       id="path194" />
    <path
       d="m 5600,8300 c -47,-3 -96,-12 -108,-19 -40,-21 -75,-114 -80,-207 -2,-45 0,-84 5,-87 5,-3 33,10 63,29 30,19 89,45 130,58 l 75,24 8,91 c 5,50 5,96 0,103 -6,10 -30,12 -93,8 z"
       id="path196" />
    <path
       d="m 13295,8156 c -56,-17 -93,-44 -111,-78 -13,-25 -13,-32 1,-62 29,-62 55,-77 139,-83 58,-4 86,-2 120,11 59,23 78,47 84,105 8,84 -36,122 -142,120 -28,0 -69,-6 -91,-13 z"
       id="path198" />
    <path
       d="m 5768,8073 c -38,-4 -38,-4 -38,-50 0,-38 3,-44 16,-39 53,20 216,39 351,40 83,0 146,4 140,7 -7,4 -60,16 -119,28 -101,20 -239,25 -350,14 z"
       id="path200" />
    <path
       d="m 5610,8031 c -85,-30 -164,-77 -155,-91 3,-6 24,-10 46,-10 42,0 168,28 182,40 5,4 7,25 5,48 l -3,40 z"
       id="path202" />
    <path
       d="m 7838,8013 c -49,-57 -70,-155 -45,-215 20,-47 64,-62 145,-47 59,11 73,17 135,56 l 38,24 -27,37 c -100,136 -202,196 -246,145 z"
       id="path204" />
    <path
       d="m 5972,7980 c -51,-5 -126,-16 -168,-25 l -77,-17 6,-59 c 10,-112 63,-160 187,-167 142,-7 320,50 475,153 92,61 116,89 87,100 -21,8 -277,25 -357,23 -33,0 -102,-4 -153,-8 z"
       id="path206" />
    <path
       d="m 5987,7573 c -27,-8 -47,-17 -44,-19 6,-6 99,18 112,28 13,12 -12,8 -68,-9 z"
       id="path208" />
    <path
       d="m 4260,7525 c 0,-21 43,-83 65,-93 61,-28 61,-4 0,55 -41,39 -65,53 -65,38 z"
       id="path210" />
    <path
       d="m 12905,6288 c -22,-11 -60,-39 -84,-62 -134,-127 -93,-268 76,-254 47,4 61,10 84,36 36,40 45,90 32,177 -20,130 -33,142 -108,103 z"
       id="path212" />
    <path
       d="m 9855,5848 c -69,-38 -116,-122 -114,-207 1,-69 8,-73 64,-43 44,24 55,37 92,107 40,77 53,119 45,143 -5,15 -60,15 -87,0 z"
       id="path214" />
    <path
       d="m 4042,5615 c -30,-22 -71,-95 -88,-157 -14,-55 -19,-130 -8,-141 20,-19 130,82 160,148 28,58 31,111 8,143 -18,26 -41,28 -72,7 z"
       id="path216" />
    <path
       d="m 8282,5441 c 393,-137 718,-444 990,-936 166,-299 343,-756 494,-1273 l 55,-187 -6,190 c -14,503 -89,917 -226,1258 -153,381 -395,661 -701,810 -169,83 -416,149 -608,162 l -85,6 z"
       id="path218" />
    <path
       d="m 7475,5439 c -49,-11 -135,-29 -191,-40 -56,-12 -107,-24 -113,-29 -10,-5 -5,-23 19,-69 35,-70 24,-70 110,1 65,53 177,116 238,134 28,8 52,17 52,20 0,6 -13,4 -115,-17 z"
       id="path220" />
    <path
       d="m 8025,5360 c -82,-162 54,-393 166,-281 59,59 33,163 -68,272 -31,32 -59,59 -64,59 -5,0 -20,-22 -34,-50 z"
       id="path222" />
    <path
       d="m 12222,5223 c -12,-2 -27,-14 -33,-26 -10,-17 -8,-24 10,-38 12,-10 41,-20 64,-23 71,-9 235,-11 230,-3 -14,23 -215,103 -243,96 -3,-1 -15,-4 -28,-6 z"
       id="path224" />
    <path
       d="m 7148,5086 c -100,-134 -183,-318 -242,-538 -198,-737 -119,-1813 162,-2186 71,-96 148,-125 221,-87 81,42 200,235 271,440 102,296 160,681 146,975 -13,291 -71,540 -198,865 -53,135 -284,605 -297,605 -4,0 -32,-33 -63,-74 z"
       id="path226" />
    <path
       d="m 10680,4670 c -328,-34 -528,-108 -665,-245 -82,-82 -129,-169 -152,-284 -19,-90 -7,-180 32,-248 23,-38 109,-123 125,-123 4,0 22,30 40,68 38,76 124,168 188,201 143,73 322,66 413,-16 56,-50 77,-97 105,-232 31,-143 54,-188 114,-219 94,-49 270,-6 326,78 33,50 34,118 5,253 -27,124 -27,192 -1,235 24,39 72,70 123,78 20,4 37,11 37,16 0,5 -11,30 -24,56 -36,73 -77,179 -107,277 l -27,90 -38,7 c -63,12 -402,17 -494,8 z"
       id="path228" />
    <path
       d="m 5413,4270 c -18,-11 -35,-31 -39,-46 -6,-23 -1,-32 25,-56 17,-15 35,-28 40,-28 15,0 43,84 39,116 -4,36 -23,40 -65,14 z"
       id="path230" />
    <path
       d="m 4430,4202 c 0,-17 82,-72 106,-72 12,0 -7,55 -23,68 -19,14 -83,17 -83,4 z"
       id="path232" />
    <path
       d="m 11478,4130 c 107,-168 197,-225 195,-122 -1,50 -24,94 -65,126 -30,22 -55,31 -141,50 l -28,7 z"
       id="path234" />
    <path
       d="m 9864,2253 c 2,-386 11,-486 52,-565 l 17,-33 16,35 c 22,49 21,372 -2,525 -26,172 -71,405 -78,405 -4,0 -6,-165 -5,-367 z"
       id="path236" />
  </g>
</svg>
