<svg class="{{ class }}" xmlns="http://www.w3.org/2000/svg" viewBox="0 24.950000762939453 377.95001220703125 53.38999557495117" data-asc="1.4150390625" width="377.95001220703125" height="53.38999557495117"><defs/><g><g fill="currentColor"><g transform="translate(0, 0)"><path d="M20.24 42.46Q20.07 41.75 19.76 41.26Q19.46 40.77 18.46 39.60L18.60 39.45Q20.41 41.60 21.53 41.85Q22.12 41.99 22.95 41.99Q23.78 41.99 25.20 40.70L25.44 40.99Q24.51 41.89 24.26 42.33Q24.00 42.77 24.00 43.26L24.00 50.61Q24.00 51.12 23.69 52.08Q23.39 53.03 23.39 53.47Q23.39 53.91 24.85 54.96L24.58 55.30Q23.41 54.39 22.90 54.39Q21.80 54.39 21.80 56.71Q21.80 57.79 23.85 58.45L23.71 58.91Q22.58 58.50 22.06 58.50Q21.53 58.50 21.31 58.64Q20.73 58.98 20.09 61.40L19.85 61.30Q20.24 59.91 20.24 59.22Q20.24 58.52 19.58 57.48Q18.92 56.45 18.32 56.45Q17.72 56.45 16.75 56.81L16.55 56.20Q17.72 55.79 18.03 55.44Q18.33 55.10 18.33 54.54L18.33 53.30Q18.33 52.56 17.60 52.56L14.79 52.56Q14.04 52.56 14.04 53.30L14.04 61.74Q14.04 63.18 15.50 63.67Q17.26 64.28 17.74 64.87Q18.21 65.45 18.68 65.71Q19.14 65.97 20.39 66.41L20.29 66.70Q18.70 66.16 18.09 66.16L16.46 66.46Q16.31 66.46 16.19 66.41L14.04 66.16Q10.25 66.16 7.74 67.09Q6.25 67.65 6.25 68.46Q6.25 68.95 6.88 70.14L6.59 70.31Q5.86 68.95 5.54 68.80Q4.59 69.07 4.59 69.90L3.96 69.85Q6.37 66.53 8.69 65.16Q8.79 64.97 8.79 64.84L8.79 59.59Q8.79 54.59 8.15 54.59Q7.74 54.59 6.88 54.81L6.74 54.10Q7.81 53.83 8.13 53.56Q8.45 53.30 8.45 52.86L8.25 50.34L7.84 37.65Q7.84 37.04 7.20 36.96L5.83 36.60Q5.74 36.55 5.54 36.55Q5.00 36.55 4.15 37.96L3.74 37.70Q4.44 36.62 4.44 36.11Q4.44 35.01 2.49 35.01Q2.12 35.01 0.05 35.79L0 35.64Q1.68 35.03 1.82 34.88Q1.95 34.72 1.95 34.45Q1.95 34.18 1.25 33.01L1.76 32.64Q2.59 33.96 3.10 33.96Q3.52 33.96 4.35 33.35Q5.18 32.74 5.41 32.31Q5.64 31.88 6.01 30.66L6.30 30.76Q5.96 32.10 5.96 32.62Q5.96 33.13 6.23 33.47Q6.49 33.81 7.01 33.96Q7.52 34.11 7.96 34.16Q8.40 34.20 9.08 34.22Q9.77 34.23 10.06 34.25L17.70 34.55Q18.60 34.55 20.36 34.24Q22.12 33.94 22.29 33.74L22.71 33.35Q23.10 32.96 23.10 32.52Q23.10 32.08 22.34 31.05L22.90 30.66Q23.66 31.91 24.17 31.91Q24.68 31.91 25.13 31.63Q25.59 31.35 25.71 31.05L24.29 31.40Q24.88 31.23 25.76 30.86Q25.76 30.18 25.39 29.30L26.15 29.05Q26.49 30.05 26.81 30.40Q28.91 29.39 29.79 28.20L31.35 29.30Q30.71 30.20 30.36 31.63Q30.00 33.06 30.00 34.20L30.10 35.74L30.10 40.80Q30.10 41.28 30.36 41.72Q30.62 42.16 31.49 43.09L31.25 43.36Q30.35 42.46 29.90 42.20Q29.44 41.94 28.96 41.94L27.59 41.94Q27.08 41.94 26.73 42.24Q26.39 42.53 25.81 43.65L25.34 43.41Q26.05 42.16 26.05 41.80Q26.05 41.43 25.85 40.99L23.44 37.21Q23.27 37.04 23.05 36.96L21.75 36.69L15.04 37.01Q14.75 37.01 14.39 37.54Q14.04 38.06 14.04 38.31L14.04 39.84Q14.09 41.99 14.09 43.80Q14.21 43.95 14.23 45.07Q14.36 48.14 15.09 48.14L18.33 48.14Q19.65 48.14 19.65 45.41L19.65 44.41L20.24 42.46M24.29 31.40Q24.00 31.49 23.90 31.49L24.29 31.40ZM62.08 68.70Q62.35 69.17 63.26 69.19Q64.16 69.21 64.23 69.36Q64.23 69.46 63.60 69.52Q62.96 69.58 62.74 69.68Q62.52 69.78 62.43 69.90Q62.33 70.02 62.00 70.15Q61.67 70.29 61.36 70.76Q61.06 71.24 61.01 71.63Q60.94 72.66 60.57 72.66Q60.11 72.66 59.28 71.70Q58.45 70.75 57.89 69.75L56.67 70.46Q56.03 70.78 56.01 71.66Q55.98 72.53 55.52 72.71Q55.52 70.02 52.78 69.09Q51.51 68.65 50.55 68.65Q49.58 68.65 47.88 68.75L47.07 69.09Q47.00 69.12 46.56 69.53Q45.34 70.61 44.87 70.61L45.07 70.41L45.02 70.41Q44.92 70.41 44.09 69.68Q43.26 68.95 42.97 68.95L39.43 69.14Q38.67 69.78 37.18 70.04Q36.82 70.70 35.56 71.00Q34.30 71.29 32.71 71.51Q31.13 71.73 30.65 71.98Q30.18 72.24 30.00 72.24Q29.83 72.24 29.74 72.19Q31.08 71.41 31.79 70.65L32.67 69.36Q32.86 69.12 32.95 68.41Q33.03 67.70 33.18 67.55Q33.08 68.46 33.08 68.91Q33.08 69.36 33.18 69.46L33.18 68.95Q33.18 67.41 34.28 67.36Q34.28 65.63 36.23 64.99L35.67 61.16L33.98 60.74L34.03 60.16Q35.40 60.45 35.62 60.45Q35.99 60.45 36.32 59.64Q36.65 58.84 37.02 57.81Q37.40 56.79 37.82 56.45Q37.77 55.96 37.77 55.05L38.04 51.76Q38.04 51.51 37.32 51.00Q36.60 50.49 36.57 50.15L36.57 50.05Q37.67 50.51 38.12 50.51Q38.57 50.51 39.10 49.39Q39.62 48.27 39.62 47.86Q39.62 47.46 39.04 46.92Q38.28 46.19 38.48 45.80Q39.70 46.56 40.00 46.56Q40.31 46.56 40.67 46.19Q40.63 46.00 40.63 45.23Q40.63 44.46 41.48 42.27Q42.33 40.09 42.33 38.84L42.29 38.26Q42.29 38.06 41.59 37.49Q40.89 36.91 40.87 36.60L40.87 36.50Q42.19 37.11 42.53 37.11Q43.12 37.11 44.14 35.40Q45.17 33.69 46.33 31.40Q47.49 29.10 47.77 28.74Q48.05 28.37 48.22 27.81Q48.75 26.22 49.12 26.05Q48.93 27.20 48.93 27.87Q48.93 28.54 49.29 29.75Q49.66 30.96 50.83 33.69Q52.00 36.43 52.98 38.45Q55.47 43.63 56.03 48.66Q56.15 49.90 56.59 50.85Q57.03 51.81 57.03 52.76L56.93 54.71L56.93 56.25Q58.45 58.35 58.89 61.35Q59.03 62.11 59.68 62.73Q60.33 63.35 60.33 63.70L60.38 63.84Q58.79 62.50 57.98 62.50L57.57 62.50L57.84 64.99Q59.06 65.53 59.55 66.70Q59.99 67.80 61.13 67.80Q61.18 67.80 61.77 67.30Q62.35 66.80 62.82 66.80Q61.99 67.92 61.99 68.19Q61.99 68.46 62.08 68.65L62.08 68.70M48.88 65.36L49.17 65.31L49.93 65.21L51.32 63.65L51.03 59.25Q50.17 58.64 49.72 57.36Q49.27 56.08 49.27 55.47Q49.27 54.86 49.29 54.76Q49.32 54.66 49.32 54.59L48.58 55.66Q48.39 55.93 48.39 56.13Q48.39 56.32 48.61 56.86Q48.83 57.40 48.83 57.78Q48.83 58.15 48.68 58.30Q47.97 57.13 47.64 56.84Q47.31 56.54 46.83 56.54L41.38 56.54L41.72 57.91Q41.80 58.20 42.69 58.86Q43.58 59.52 43.63 59.91Q42.58 59.50 42.10 59.50Q41.63 59.50 41.24 59.79L40.77 60.45L40.77 65.21L42.63 65.11L44.12 65.36Q44.24 65.36 44.79 65.10Q45.34 64.84 45.68 64.84Q46.02 64.84 46.12 64.89Q45.17 65.48 44.86 65.78Q44.56 66.09 44.48 66.46L44.48 66.99L44.43 67.16Q44.43 67.50 44.80 67.53Q45.58 67.58 45.92 68.31Q44.82 67.94 44.49 67.94Q44.17 67.94 44.17 68.36Q44.29 68.95 45.29 70.19Q46.14 69.29 46.36 68.75Q46.58 68.21 47.16 67.16Q47.73 66.11 47.73 65.92Q47.73 65.72 47.38 65.11Q47.02 64.50 47.02 64.25Q47.02 63.99 47.22 63.79Q48.27 65.36 48.88 65.36M45.78 49.00L44.34 48.75Q43.82 48.75 43.38 49.37Q42.58 50.46 42.58 51.28Q42.58 52.10 42.63 52.29L43.73 52.71Q44.65 52.71 45.29 52.36Q45.92 52.00 46.22 51.90L47.02 51.66Q46.92 51.46 46.92 51.22Q46.92 50.98 47.38 50.44Q47.83 49.90 47.83 49.66Q47.83 48.66 47.17 45.28Q46.51 41.89 46.12 40.70L43.97 45.61L43.97 46.09Q44.07 46.19 44.17 47.09L44.17 47.29Q44.26 47.90 45.34 48.34Q45.95 48.75 45.97 48.90Q45.97 49.00 45.78 49.00ZM89.77 26.61Q89.77 28.25 92.92 28.25L94.36 28.15Q94.63 28.15 94.78 28.00L95.12 27.61Q95.48 27.20 95.48 26.86Q95.48 26.51 94.97 25.24L95.48 25.05Q95.97 26.22 96.26 26.51Q96.56 26.81 97.07 26.81L102.27 26.81Q103.13 26.81 104.93 25.76L105.08 26.00Q103.32 27.05 102.86 27.92Q102.39 28.78 101.53 29.71Q100.66 30.64 99.69 31.45Q98.73 32.25 97.64 33.14Q96.56 34.03 95.56 35.05Q94.56 36.06 93.70 37.21Q91.87 39.62 91.58 42.99L91.58 43.21Q91.58 43.58 91.88 43.86Q92.19 44.14 93.21 44.60L93.02 45.04Q91.85 44.51 91.24 44.51Q90.63 44.51 89.75 45.80Q88.87 47.09 87.94 49.00Q87.01 50.90 86.67 51.39Q86.57 51.64 86.57 51.76Q86.52 52.81 85.47 54.75Q84.42 56.69 84.42 57.36Q84.42 58.03 84.73 58.28Q85.03 58.52 85.91 58.86L85.72 59.25Q84.50 58.86 84.25 58.86Q84.01 58.86 83.76 59.11L83.76 59.25Q83.76 59.79 84.96 60.79L84.67 61.11Q83.50 60.01 83.12 60.01Q82.74 60.01 82.48 60.23Q82.23 60.45 82.23 60.74L82.23 61.16Q82.23 62.38 83.03 62.62Q83.42 62.74 84.08 62.84L83.96 63.79Q83.67 63.75 83.13 63.75Q82.59 63.75 82.24 63.99Q81.88 64.23 81.74 64.77Q81.57 65.50 81.57 66.24Q81.57 66.97 81.88 67.22Q82.20 67.48 83.37 67.90L83.23 68.31Q82.10 67.90 81.57 67.90Q81.03 67.90 80.73 68.63Q80.42 69.36 80.37 70.19L79.98 70.26Q79.66 69.60 79.66 69.13Q79.66 68.65 79.76 68.36L79.47 68.31Q79.00 68.31 77.78 69.36L77.32 68.90Q78.47 67.87 78.47 67.25Q78.47 66.63 77.93 65.86Q77.39 65.09 76.79 64.22Q76.20 63.35 76.16 62.77Q76.12 62.18 75.83 61.96Q74.41 60.86 73.10 55.03Q72.53 52.44 72.33 51.88Q72.12 51.32 71.98 50.93Q71.85 50.54 71.78 50.33Q71.70 50.12 71.56 49.74Q71.41 49.37 71.29 49.13Q71.17 48.90 71.02 48.63Q70.73 48.12 70.41 47.95Q71.02 47.80 71.02 47.01Q71.02 46.22 70.46 44.92Q69.90 43.63 69.18 42.69Q68.46 41.75 67.92 41.75Q67.38 41.75 66.43 42.16L66.16 41.50Q67.31 41.04 67.64 40.66Q67.97 40.28 67.97 39.65L67.97 38.26Q67.97 38.16 67.87 37.96L65.97 34.74Q65.75 34.45 65.41 34.45Q64.77 34.45 64.28 36.06L63.62 35.84Q63.92 34.89 63.92 34.50Q63.92 33.76 62.39 33.20Q60.86 32.64 60.39 32.64Q59.91 32.64 58.28 32.96L58.18 32.64Q60.21 32.20 60.77 31.59L62.72 29.54Q63.06 29.20 63.06 28.81Q63.06 28.42 62.57 27.20L63.01 27.00Q63.50 28.05 63.79 28.38Q64.09 28.71 64.48 28.71L73.93 28.44L75.78 28.20Q76.03 28.15 76.25 27.86Q76.46 27.56 76.46 27.15Q76.46 26.73 75.56 25.39L75.88 25.20Q76.76 26.66 77.32 26.81Q77.88 26.66 78.61 25.05L79.08 25.24Q78.52 26.39 78.52 26.95Q78.52 28.05 80.18 28.15Q80.32 28.15 80.52 28.05L81.18 27.56L82.23 30.71Q82.20 30.74 82.12 30.76Q82.03 30.79 81.98 30.81L81.81 30.49L81.71 31.45Q81.71 32.15 82.98 33.59L82.67 33.91Q81.81 32.93 81.38 32.67Q80.96 32.40 80.47 32.40L78.17 32.40Q77.88 32.40 77.61 32.69L76.32 34.64Q76.22 34.84 76.22 34.97Q76.22 35.11 76.37 35.40Q76.51 35.69 77.42 37.37Q78.32 39.04 78.61 39.70Q79.66 41.99 79.66 43.52Q79.66 45.04 79.74 46.22Q79.81 47.39 79.98 48.93Q80.42 52.47 81.62 52.76L81.62 46.00Q81.71 46.34 82.42 46.59Q83.13 46.85 83.98 46.85Q84.84 46.85 84.96 46.46Q88.57 36.38 88.57 33.81Q88.57 33.47 88.23 33.30L88.23 33.25Q87.70 33.06 87.57 33.06Q87.04 33.06 86.13 34.25L85.52 33.81Q86.28 32.79 86.28 32.40Q86.28 32.01 85.82 31.54L85.42 31.20L86.28 26.81L87.57 26.81Q88.26 26.81 88.60 26.49Q88.94 26.17 89.33 24.95L90.01 25.20Q89.77 26.03 89.77 26.61ZM110.99 57.10Q110.99 56.45 110.13 56.45Q109.99 56.45 108.23 57.15L107.84 56.15Q110.08 55.05 110.08 54.86L110.13 53.91Q110.16 53.66 109.68 49.06Q109.20 44.46 109.23 42.85Q109.06 42.33 108.76 42.11Q108.47 41.89 107.69 41.89L106.98 41.94L106.93 41.21Q108.47 41.16 108.74 40.72Q109.08 40.16 109.08 39.36Q109.08 38.55 108.53 37.60Q107.98 36.65 107.45 36.65Q106.91 36.65 106.08 37.01L105.83 36.40Q106.81 35.99 107.09 35.74Q107.37 35.50 107.37 35.11Q107.13 34.69 106.74 34.69L103.13 34.79Q102.66 34.79 102.31 35.08Q101.95 35.38 101.34 36.45L100.93 36.25Q101.68 34.96 101.68 34.59Q101.68 34.23 101.60 33.98Q101.51 33.74 101.37 33.41Q101.22 33.08 101.15 32.76Q100.93 31.98 99.24 30.96L99.49 30.59Q100.93 31.54 101.43 31.54Q101.93 31.54 102.78 31.38Q103.64 31.23 107.54 31.13Q111.45 31.03 111.74 31.01L111.62 31.05Q112.11 31.01 112.33 30.91Q112.84 30.66 112.94 29.10L113.72 29.10Q113.72 30.79 114.16 30.96Q114.89 31.30 118.47 31.51Q122.05 31.71 123.78 31.71Q124.46 31.71 124.93 29.86L125.34 29.96Q125.12 30.76 125.12 31.25Q125.12 31.74 125.55 32.04Q125.98 32.35 126.72 32.67Q127.47 32.98 127.78 33.20Q132.28 32.91 134.03 31.15L136.13 33.35Q134.01 35.40 133.79 41.16L133.79 37.74Q133.69 38.57 133.24 40.38Q132.79 42.19 132.76 42.92Q132.74 43.65 133.02 43.93Q133.30 44.21 134.42 44.75L134.28 45.14Q133.06 44.60 132.64 44.60Q132.23 44.60 132.06 44.73Q131.52 45.09 131.32 47.29L131.03 47.24Q131.08 46.70 131.08 46.01Q131.08 45.31 130.85 44.81Q130.62 44.31 130.15 43.70Q128.39 41.46 128.39 39.06L128.44 38.60Q128.44 38.01 127.31 36.88Q126.17 35.74 125.29 35.56Q124.41 35.38 124.07 34.74Q123.73 35.11 123.01 35.11Q122.29 35.11 120.57 34.68Q118.85 34.25 117.68 34.25Q114.89 34.25 114.89 35.30Q115.06 36.43 115.27 37.74Q115.48 39.06 115.65 40.27Q115.82 41.48 115.87 42.08Q115.92 42.68 116.02 43.65Q116.19 45.39 116.19 46.81Q116.19 48.24 116.16 48.93Q116.14 49.61 116.82 49.61L122.68 50.15Q123.22 50.15 123.44 49.22Q123.66 48.29 123.75 46.84Q123.85 45.39 124.01 44.87Q124.17 44.36 124.17 43.87Q124.17 43.38 123.63 41.94L124.02 41.80Q124.73 43.63 125.71 44.31Q126.66 44.97 126.84 45.35Q127.03 45.73 127.03 46.41L126.88 51.05Q126.88 54.35 127.17 57.50Q127.17 57.89 127.51 58.15Q127.86 58.42 129.03 58.81L128.88 59.20Q127.51 58.81 127.22 58.81Q126.29 58.81 126.17 60.40Q126.17 60.89 127.49 62.21L127.34 62.35Q126.03 60.96 125.63 60.96L125.54 60.96Q125.07 60.96 124.44 62.70L124.24 62.60Q124.73 61.16 124.73 60.91Q124.73 60.67 124.58 60.60L124.17 60.21Q123.85 59.96 123.49 59.96Q123.12 59.96 121.88 60.50L121.68 60.06Q122.83 59.57 123.13 59.28Q123.44 58.98 123.44 58.54L123.44 54.71Q123.44 54.57 122.96 54.10Q122.49 53.64 122.49 53.61L120.48 53.71Q120.09 53.74 119.35 53.47Q118.60 53.20 118.33 53.20Q117.48 53.20 117.48 54.30L117.72 57.40Q118.07 59.20 118.21 62.74Q118.36 66.28 118.68 67.99Q119.63 68.21 126.44 68.21Q126.73 68.04 127.40 67.66Q128.08 67.29 128.44 67.07Q128.81 66.85 129.35 66.50Q130.25 65.92 131.08 65.21Q131.32 64.77 131.37 62.89L131.54 62.89L131.47 64.01Q131.47 65.65 132.23 65.65Q132.45 65.65 133.79 65.41L133.84 65.65Q132.28 65.97 132.14 66.13Q132.01 66.28 131.97 66.70Q131.93 67.11 131.38 68.43Q130.83 69.75 130.83 70.32Q130.83 70.90 131.14 71.22Q131.45 71.53 132.42 71.95L132.13 72.61Q131.42 72.19 130.77 72.19Q130.13 72.19 129.74 72.75L129.49 75.29Q129.49 75.51 130.64 76.04Q131.79 76.56 133.13 76.95L133.08 77.25L129.54 76.20Q129.20 76.20 129.13 76.37Q129.05 76.54 129.03 76.56L128.93 78.34L128.64 78.30Q128.61 78.00 128.61 77.60Q128.61 77.20 128.60 77.01Q128.59 76.83 128.54 76.64Q128.49 76.29 128.14 76.29Q127.78 76.29 126.49 76.66L126.44 76.44Q127.93 76.03 128.05 75.87Q128.17 75.71 128.17 75.56L128.54 73.66Q128.54 72.92 127.26 72.19Q125.98 71.46 125.34 71.46Q124.83 71.46 124.07 72.95L123.58 72.71Q123.71 72.31 123.93 71.83Q124.15 71.34 124.17 71.19Q124.02 71.58 121.52 71.75Q119.02 71.92 118.58 72.00Q118.29 72.36 117.77 72.36Q117.26 72.36 116.05 71.79Q114.84 71.22 114.48 71.09Q113.94 71.70 113.26 71.73Q111.89 71.78 110.33 73.34L110.03 73.00Q110.08 72.90 110.49 72.46Q110.89 72.02 111.15 71.47Q111.40 70.92 111.40 70.61Q111.40 69.75 111.94 69.21L112.04 68.75L112.13 68.21Q111.52 65.53 111.30 61.85Q111.08 58.18 110.99 57.10M127.93 33.30L128.32 33.69Q128.93 33.40 129.88 33.40L127.93 33.30M107.32 35.01L107.37 35.06L107.32 35.01ZM153.34 28.25L153.30 28.96Q153.30 29.76 153.42 29.94Q153.54 30.13 153.81 30.20Q154.08 30.27 154.22 30.29Q154.37 30.30 154.47 30.27Q154.81 30.20 155.86 28.91L156.10 29.05Q154.96 30.44 154.96 30.81L155.20 32.10Q155.20 32.64 155.18 33.04Q155.15 33.45 156.25 34.79L156.10 34.96Q155.32 33.96 155.07 33.73Q154.81 33.50 154.54 33.50L153.96 33.40Q153.78 33.40 153.39 33.50L151.15 35.21Q150.85 35.50 150.85 35.79L151.00 36.96L150.95 38.31Q150.95 39.14 151.21 39.54Q151.46 39.94 151.92 39.94Q152.37 39.94 153.15 39.84L153.20 40.70Q151.95 40.89 151.65 41.26Q151.34 41.63 151.34 42.33Q151.34 43.04 151.65 43.24Q151.95 43.43 153.30 43.46L153.25 43.99Q151.98 43.99 151.64 44.15Q151.29 44.31 151.25 44.75Q150.93 45.61 150.74 50.01Q150.56 54.42 150.34 56.25Q150.34 56.37 150.55 56.84Q150.76 57.30 151.25 57.30Q151.73 57.30 152.69 56.96L152.86 57.50Q151.32 58.01 151.15 58.40Q151.10 58.54 151.10 58.91L151.25 59.74Q151.32 60.30 152.05 60.30L156.45 60.06Q156.93 59.89 157.24 59.52Q157.54 59.16 158.06 57.96L158.50 58.06Q158.25 60.11 158.25 60.55Q158.25 60.64 158.57 60.64L158.69 60.64L160.35 60.74Q161.13 60.74 162.54 58.59Q163.94 56.45 163.94 55.92Q163.94 55.40 162.94 54.35L163.31 54.05Q164.23 55.20 164.62 55.20Q165.01 55.20 167.36 52.91L167.60 53.10Q166.60 54.17 166.60 54.39L166.65 59.25Q166.50 60.38 165.50 62.21Q164.14 64.65 164.14 65.19Q164.14 65.72 165.41 66.75L165.09 67.09Q164.04 66.16 163.71 66.16Q163.38 66.16 162.65 66.46Q162.16 66.72 161.55 68.70L161.30 68.65Q161.69 67.46 161.69 66.87Q161.69 66.28 161.36 65.55Q161.04 64.82 160.99 64.50Q160.55 64.62 160.34 65.01Q160.13 65.41 160.06 66.46L159.25 66.41Q159.25 65.04 158.46 64.60Q157.67 64.16 154.96 64.16Q152.25 64.16 150.70 64.48Q149.15 64.79 145.90 66.04Q145.36 66.46 145.00 68.26L144.65 68.21Q144.90 66.94 144.90 66.66Q144.90 66.38 144.85 66.22Q144.80 66.06 144.76 66.00Q144.73 65.94 144.60 65.80Q144.31 65.45 143.97 65.45Q143.63 65.45 142.41 65.89L142.31 65.65Q143.46 65.19 143.76 64.99Q144.07 64.79 144.14 64.55L144.14 63.84Q144.17 63.67 144.56 62.35Q144.56 62.30 144.24 62.11L144.60 62.26L145.24 61.69Q145.39 61.55 145.39 61.22Q145.39 60.89 145.00 59.69L145.24 59.59Q145.68 60.94 145.90 61.25Q146.19 61.11 146.19 60.83Q146.19 60.55 146.07 60.10Q145.95 59.64 145.97 58.25Q146.00 56.86 145.78 55.98Q145.56 55.10 144.80 55.10Q144.63 55.10 143.75 55.20L143.65 54.44Q145.24 54.17 145.43 53.71Q145.51 53.54 145.51 52.53Q145.51 51.51 144.92 48.45Q144.34 45.39 144.34 43.85L144.41 42.80Q144.41 42.75 144.08 42.13Q143.75 41.50 143.75 40.84L144.09 37.30Q144.09 36.62 143.92 36.36Q143.75 36.11 143.66 35.97Q143.58 35.84 143.33 35.77Q143.09 35.69 142.99 35.64Q142.75 35.55 142.21 35.55L141.19 35.55Q140.53 35.55 139.04 36.65L138.84 36.35Q139.84 35.57 140.15 35.14Q140.45 34.72 140.55 34.25L140.70 32.45Q140.70 31.62 139.50 30.20L139.75 29.96Q141.04 31.30 141.75 31.30Q143.65 31.30 147.08 30.97Q150.51 30.64 151.48 30.42Q152.44 30.20 152.56 30.10Q152.91 29.86 152.95 28.30L153.34 28.25ZM193.38 68.70Q193.65 69.17 194.56 69.19Q195.46 69.21 195.53 69.36Q195.53 69.46 194.90 69.52Q194.26 69.58 194.04 69.68Q193.82 69.78 193.73 69.90Q193.63 70.02 193.30 70.15Q192.97 70.29 192.66 70.76Q192.36 71.24 192.31 71.63Q192.24 72.66 191.87 72.66Q191.41 72.66 190.58 71.70Q189.75 70.75 189.18 69.75L187.96 70.46Q187.33 70.78 187.30 71.66Q187.28 72.53 186.82 72.71Q186.82 70.02 184.08 69.09Q182.81 68.65 181.85 68.65Q180.88 68.65 179.17 68.75L178.37 69.09Q178.30 69.12 177.86 69.53Q176.64 70.61 176.17 70.61L176.37 70.41L176.32 70.41Q176.22 70.41 175.39 69.68Q174.56 68.95 174.27 68.95L170.73 69.14Q169.97 69.78 168.48 70.04Q168.12 70.70 166.86 71.00Q165.60 71.29 164.01 71.51Q162.43 71.73 161.95 71.98Q161.47 72.24 161.30 72.24Q161.13 72.24 161.04 72.19Q162.38 71.41 163.09 70.65L163.96 69.36Q164.16 69.12 164.25 68.41Q164.33 67.70 164.48 67.55Q164.38 68.46 164.38 68.91Q164.38 69.36 164.48 69.46L164.48 68.95Q164.48 67.41 165.58 67.36Q165.58 65.63 167.53 64.99L166.97 61.16L165.28 60.74L165.33 60.16Q166.70 60.45 166.92 60.45Q167.29 60.45 167.61 59.64Q167.94 58.84 168.32 57.81Q168.70 56.79 169.12 56.45Q169.07 55.96 169.07 55.05L169.34 51.76Q169.34 51.51 168.62 51.00Q167.90 50.49 167.87 50.15L167.87 50.05Q168.97 50.51 169.42 50.51Q169.87 50.51 170.40 49.39Q170.92 48.27 170.92 47.86Q170.92 47.46 170.34 46.92Q169.58 46.19 169.78 45.80Q171.00 46.56 171.30 46.56Q171.61 46.56 171.97 46.19Q171.92 46.00 171.92 45.23Q171.92 44.46 172.78 42.27Q173.63 40.09 173.63 38.84L173.58 38.26Q173.58 38.06 172.89 37.49Q172.19 36.91 172.17 36.60L172.17 36.50Q173.49 37.11 173.83 37.11Q174.41 37.11 175.44 35.40Q176.46 33.69 177.62 31.40Q178.78 29.10 179.06 28.74Q179.35 28.37 179.52 27.81Q180.05 26.22 180.42 26.05Q180.22 27.20 180.22 27.87Q180.22 28.54 180.59 29.75Q180.96 30.96 182.13 33.69Q183.30 36.43 184.28 38.45Q186.77 43.63 187.33 48.66Q187.45 49.90 187.89 50.85Q188.33 51.81 188.33 52.76L188.23 54.71L188.23 56.25Q189.75 58.35 190.19 61.35Q190.33 62.11 190.98 62.73Q191.63 63.35 191.63 63.70L191.67 63.84Q190.09 62.50 189.28 62.50L188.87 62.50L189.14 64.99Q190.36 65.53 190.84 66.70Q191.28 67.80 192.43 67.80Q192.48 67.80 193.07 67.30Q193.65 66.80 194.12 66.80Q193.29 67.92 193.29 68.19Q193.29 68.46 193.38 68.65L193.38 68.70M180.18 65.36L180.47 65.31L181.23 65.21L182.62 63.65L182.32 59.25Q181.47 58.64 181.02 57.36Q180.57 56.08 180.57 55.47Q180.57 54.86 180.59 54.76Q180.62 54.66 180.62 54.59L179.88 55.66Q179.69 55.93 179.69 56.13Q179.69 56.32 179.91 56.86Q180.13 57.40 180.13 57.78Q180.13 58.15 179.98 58.30Q179.27 57.13 178.94 56.84Q178.61 56.54 178.13 56.54L172.68 56.54L173.02 57.91Q173.10 58.20 173.99 58.86Q174.88 59.52 174.93 59.91Q173.88 59.50 173.40 59.50Q172.92 59.50 172.53 59.79L172.07 60.45L172.07 65.21L173.93 65.11L175.42 65.36Q175.54 65.36 176.09 65.10Q176.64 64.84 176.98 64.84Q177.32 64.84 177.42 64.89Q176.46 65.48 176.16 65.78Q175.85 66.09 175.78 66.46L175.78 66.99L175.73 67.16Q175.73 67.50 176.10 67.53Q176.88 67.58 177.22 68.31Q176.12 67.94 175.79 67.94Q175.46 67.94 175.46 68.36Q175.59 68.95 176.59 70.19Q177.44 69.29 177.66 68.75Q177.88 68.21 178.45 67.16Q179.03 66.11 179.03 65.92Q179.03 65.72 178.67 65.11Q178.32 64.50 178.32 64.25Q178.32 63.99 178.52 63.79Q179.57 65.36 180.18 65.36M177.08 49.00L175.63 48.75Q175.12 48.75 174.68 49.37Q173.88 50.46 173.88 51.28Q173.88 52.10 173.93 52.29L175.02 52.71Q175.95 52.71 176.59 52.36Q177.22 52.00 177.51 51.90L178.32 51.66Q178.22 51.46 178.22 51.22Q178.22 50.98 178.67 50.44Q179.13 49.90 179.13 49.66Q179.13 48.66 178.47 45.28Q177.81 41.89 177.42 40.70L175.27 45.61L175.27 46.09Q175.37 46.19 175.46 47.09L175.46 47.29Q175.56 47.90 176.64 48.34Q177.25 48.75 177.27 48.90Q177.27 49.00 177.08 49.00ZM212.84 64.01Q214.16 63.33 214.26 62.79L214.09 62.50Q213.06 61.21 212.33 59.24Q211.60 57.28 210.91 55.03Q210.23 52.78 209.50 51.39Q209.33 51.05 208.94 51.05Q208.54 51.05 207.84 51.39L207.64 51.00Q208.79 50.54 208.79 50.10Q208.79 49.29 207.65 47.57Q206.52 45.85 206.30 44.95Q204.81 42.46 204.61 42.46Q204.42 42.46 204.24 43.70Q204.05 44.95 204.05 45.92Q204.05 46.90 203.86 48.74Q203.66 50.59 203.44 50.76Q204.30 51.73 204.30 53.71Q204.30 53.88 204.22 54.71Q204.15 55.54 204.27 55.83Q204.39 56.13 204.64 58.11Q205.27 63.31 205.86 63.31L207.30 63.31Q207.67 63.31 207.97 63.07Q208.28 62.84 208.79 62.01L209.16 62.21Q208.50 63.35 208.50 63.66Q208.50 63.96 208.70 64.34Q208.91 64.72 209.20 64.86Q209.50 64.99 210.50 65.26L210.45 65.45Q209.69 65.31 209.22 65.31Q208.74 65.31 208.67 65.32Q208.59 65.33 208.59 65.45Q208.40 65.65 208.40 65.94Q208.40 66.24 208.84 67.21L208.54 67.26Q208.06 65.99 207.64 65.99Q206.10 65.99 202.60 66.77Q199.10 67.55 199.10 67.99Q199.10 68.65 200.20 69.80L200.05 70.00Q198.85 68.85 198.19 68.85Q196.80 68.85 196.09 70.51L195.65 70.46L196.70 68.16Q196.70 68.02 195.04 67.21L195.41 66.50Q196.63 66.99 196.70 66.99Q197.19 66.99 197.19 66.59Q197.19 66.19 196.46 65.45L196.85 65.11Q197.66 65.99 197.90 65.99Q198.14 65.99 198.44 65.70Q199.56 64.89 199.88 63.85Q200.20 62.82 200.20 61.06L200 58.35L200.05 57.69Q200.05 57.64 199.95 57.45Q199.10 56.25 199.10 54.76Q199.10 53.27 199.24 52.44L199.24 52.39Q199.24 44.24 198.82 39.66Q198.39 35.08 198.00 34.30L197.00 33.35Q196.80 33.25 196.66 33.25L194.75 33.25Q194.36 33.25 194.13 33.48Q193.90 33.72 193.55 34.59L193.19 34.50Q193.60 33.72 193.60 33.22Q193.60 32.71 193.19 32.54Q193.19 32.35 192.86 32.35Q192.53 32.35 191.55 32.76L191.41 32.50Q192.36 32.10 192.58 31.92Q192.80 31.74 192.80 31.37Q192.80 31.01 191.65 29.86L191.85 29.76Q192.94 30.76 193.37 30.76Q193.80 30.76 194.65 30.48Q195.51 30.20 195.95 30.20L204.35 30.20Q204.88 30.20 205.16 29.82Q205.44 29.44 205.74 28.81L206.10 29.00Q205.64 30.10 205.64 30.37Q205.64 30.64 205.91 30.96L206.69 31.96Q206.84 32.30 207.23 32.30Q207.62 32.30 208.50 32.01L208.64 32.40Q207.69 32.76 207.45 32.98Q207.20 33.20 207.20 33.59L207.20 33.64Q207.20 33.76 207.35 33.91Q209.35 36.40 211.28 40.32Q213.21 44.24 213.60 47.05Q213.82 47.51 214.07 47.51Q214.33 47.51 215.36 47.14L215.55 47.61Q214.31 48.07 214.31 48.56Q214.31 49.37 214.87 50.54Q215.43 51.71 215.91 51.71Q216.38 51.71 217.09 51.25L217.46 51.76Q216.31 52.34 216.31 52.76Q216.38 52.95 216.64 52.95Q216.89 52.95 217.05 52.80Q217.21 52.64 217.35 52.32Q217.48 52.00 217.55 51.72Q217.63 51.44 217.74 50.96Q217.85 50.49 217.90 50.29Q217.97 48.73 218.70 46.95Q219.43 45.17 220.41 43.21Q221.80 40.41 221.80 39.65Q221.80 39.21 220.61 38.70L220.75 38.26Q221.56 38.55 221.85 38.55Q222.41 38.55 223.23 36.12Q224.05 33.69 224.05 32.69Q224.05 32.20 223.00 31.20L223.29 30.96Q224.19 31.86 224.57 31.86Q224.95 31.86 225.10 31.81L225.71 31.76Q226.25 31.57 226.25 30.81L226.20 30.10L226.59 30.05Q226.71 31.03 226.87 31.26Q227.03 31.49 227.39 31.49Q232.86 31.74 236.99 33.40Q237.26 33.54 237.52 33.54Q237.79 33.54 239.21 33.35L239.26 33.59Q238.79 33.69 238.49 33.79Q238.18 33.89 237.99 33.94Q237.79 33.98 237.63 34.12Q237.48 34.25 237.40 34.30Q237.28 34.42 236.99 34.77Q236.69 35.11 236.69 35.57Q236.69 36.04 236.99 36.79L236.65 36.96Q236.30 35.99 236.07 35.68Q235.84 35.38 235.50 35.30L234.94 35.25L233.35 35.40Q233.13 35.40 233.01 35.60L232.40 36.35Q232.25 36.43 232.25 36.60L232.25 40.55Q232.25 40.87 232.50 41.10Q232.74 41.33 233.64 41.75L233.50 42.04Q232.54 41.65 232.12 41.65Q231.69 41.65 231.69 42.16L231.74 46.04Q231.74 47.56 231.05 48.46Q230.96 48.56 230.94 48.86Q230.93 49.17 230.66 52.16Q230.40 55.15 230.40 56.76L230.54 64.11Q230.54 64.65 231.10 64.70L232.54 64.79Q233.15 64.79 234.30 63.75L234.50 63.94Q233.35 64.94 233.35 65.65L233.35 65.99Q233.35 66.28 233.72 66.47Q234.08 66.65 234.74 66.89L234.59 67.16Q233.59 66.75 233.37 66.75Q233.15 66.75 232.96 66.85L232.96 66.89Q232.79 67.07 232.79 67.26L233.20 68.60L232.96 68.70Q232.64 67.75 232.48 67.50Q232.32 67.26 232.10 67.26L224.71 66.65L223.66 66.65Q222.63 66.65 221.98 67.07Q221.34 67.48 221.09 68.80L220.85 68.75Q221.00 67.77 221.00 67.43Q221.00 67.09 220.75 66.85L220.70 66.85Q220.46 66.60 220.12 66.60Q219.78 66.60 218.80 66.70L218.80 66.46Q219.19 66.41 219.46 66.38Q219.73 66.36 219.92 66.30Q220.12 66.24 220.23 66.21Q220.34 66.19 220.46 66.06Q220.65 65.87 220.87 65.49Q221.09 65.11 221.09 64.87Q221.09 64.62 220.56 63.65L220.85 63.35Q221.34 64.16 221.59 64.40Q221.85 64.65 222.05 64.62Q222.24 64.60 222.29 64.60L223.19 64.40Q223.44 64.28 223.56 63.94L223.95 61.16Q223.78 60.74 223.68 60.60Q223.46 60.25 222.14 59.96L222.19 59.55Q222.71 59.69 223.45 59.69Q224.19 59.69 224.19 59.16L224.05 43.60Q224.05 43.14 223.82 42.87Q223.58 42.60 223.24 42.60Q222.61 42.60 222.03 44.36Q221.46 46.12 221.46 46.80Q221.46 47.49 221.73 47.66Q222.00 47.83 222.80 48.05L222.71 48.56Q221.95 48.34 221.56 48.34Q221.17 48.34 221.00 48.85L219.85 53.05L219.80 53.34Q219.80 53.96 221.09 54.49L220.90 54.96Q219.78 54.54 219.60 54.54Q218.75 54.54 218.21 55.98Q217.68 57.42 217.53 59.23Q217.02 64.75 216.78 65.26Q216.55 65.77 216.55 66.11Q216.55 66.46 216.85 67.65L216.70 67.65Q216.28 66.38 215.94 66.06Q215.60 65.75 215.55 65.70Q215.50 65.65 215.05 65.65Q214.60 65.65 213.75 66.11L213.60 65.80Q214.45 65.36 214.70 65.10Q214.94 64.84 214.94 64.50L214.94 64.40Q214.94 63.84 214.40 63.84Q214.04 63.84 212.99 64.36L212.84 64.01M198.44 34.50L198.19 34.50Q198.24 34.55 198.32 34.52Q198.39 34.50 198.44 34.50ZM254.22 35.79L253.56 35.74Q252.91 35.74 252.76 36.25Q252.86 36.62 252.95 37.98Q253.05 39.33 253.19 40.44Q253.32 41.55 253.81 42.50Q254.30 43.46 254.97 43.46Q255.64 43.46 256.32 43.26L256.52 43.90Q254.96 44.31 254.76 44.85Q254.66 45.07 254.66 45.46L254.66 48.10Q254.66 48.27 254.93 48.66Q255.20 49.05 255.25 50.39Q255.30 51.73 255.62 52.20Q256.64 53.37 257.69 58.06Q258.06 59.64 258.01 59.59L261.25 63.01Q261.47 63.21 261.72 63.21L266.67 63.21Q266.99 63.21 267.26 62.79Q267.60 62.08 268.29 61.02Q268.97 59.96 269.21 59.24Q269.46 58.52 269.46 57.75Q269.46 56.98 269.14 56.74Q268.82 56.49 267.77 56.15L267.92 55.76Q268.99 56.15 269.51 56.15Q270.80 56.15 271.04 52.39Q271.14 50.83 271.17 50.76L271.46 45.65Q271.46 41.31 271.66 37.89L270.07 34.79Q269.80 34.45 269.46 34.45L269.02 34.45Q268.70 34.45 268.53 34.52Q268.12 34.69 267.46 36.21L267.02 36.01Q267.58 34.79 267.58 34.47Q267.58 34.16 267.42 33.89Q267.26 33.62 266.93 33.20Q266.60 32.79 266.38 32.51Q266.16 32.23 265.72 31.71Q265.28 31.20 265.06 30.96Q264.62 30.42 262.57 29.76L262.67 29.39Q264.14 29.91 264.71 29.91Q265.28 29.91 266.65 29.65Q268.02 29.39 268.73 29.39L268.87 29.39Q269.24 29.39 269.49 29.05Q269.75 28.71 270.12 27.66L270.61 27.81L270.61 30.05Q271.68 30.86 272.07 30.86Q272.46 30.86 272.46 30.66Q272.46 30.18 272.20 29.72Q271.95 29.27 271.07 28.34L271.36 28.05Q272.19 28.96 272.64 29.22Q273.10 29.49 273.61 29.54L279.61 29.86Q279.96 29.86 280.14 29.52Q280.32 29.17 280.47 28.10L280.96 28.15Q280.86 28.66 280.86 29.14Q280.86 29.61 280.96 29.79Q281.10 30.05 281.57 30.10L281.67 30.10Q281.76 30.15 282.24 30.15Q282.71 30.15 284.33 29.44L284.42 29.76Q282.59 30.52 282.10 31.20L279.71 34.74Q279.42 35.06 279.42 35.42Q279.42 35.79 280.37 37.01L279.91 37.30Q278.96 36.01 278.37 36.01Q278.13 36.01 277.95 36.06L277.42 36.25Q276.86 36.47 276.86 38.23Q276.86 39.99 276.88 40.58Q276.93 43.53 277.81 43.95Q278.20 44.14 279.47 44.21L279.42 44.70Q278.15 44.70 277.77 44.84Q277.39 44.97 277.22 45.36Q276.46 46.36 276.46 48.14L276.51 49.90Q276.51 52.00 275.32 53.20Q275.22 53.39 275.22 53.49Q275.22 57.40 273.46 59.25Q273.27 59.45 273.27 59.69Q273.19 62.50 271.80 65.06Q270.41 67.63 268.07 68.80Q267.77 68.95 267.77 69.31Q267.77 69.68 268.12 70.80L267.77 70.95Q267.41 69.92 267.21 69.62Q267.02 69.31 266.77 69.31Q265.75 69.31 264.00 69.85Q262.26 70.39 261.63 70.40Q261.01 70.41 260.77 70.65L259.67 72.36Q259.25 72.97 258.86 75L258.67 75Q258.91 73.63 258.91 72.63Q258.91 71.63 257.85 70.26Q256.79 68.90 255.27 67.87Q251.95 65.58 249.56 65.06L249.61 64.84Q251.12 65.16 251.72 65.16Q252.32 65.16 252.32 64.45Q252.32 64.21 252.17 63.89Q251.25 62.50 249.72 57.59Q248.19 52.69 247.25 50.67Q246.31 48.66 245.61 48.66L240.45 49.34L240.26 48.19Q246.12 47.19 246.12 46.90L246.17 44.80L246.17 43.70Q246.17 35.77 242.50 35.60Q242.02 35.60 241.60 35.88Q241.19 36.16 240.36 37.16L240.01 36.84Q241.16 35.42 241.16 34.86Q241.16 34.74 241.06 34.45L240.87 33.54Q240.75 33.13 240.38 32.84Q240.01 32.54 238.87 32.06L239.01 31.64Q240.31 32.20 240.73 32.20Q241.16 32.20 241.53 31.96L242.46 31.54Q242.63 31.49 242.90 31.46Q243.16 31.42 243.16 31.40Q243.16 30.59 241.72 29.20L242.02 28.91Q242.92 29.79 243.35 30.02Q243.77 30.25 244.26 30.25L248.56 29.96Q249.07 29.96 249.26 29.66Q249.44 29.37 249.51 28.10L250.07 28.10Q250.07 29.42 250.21 29.70Q250.34 29.98 250.85 30.05L252.27 30.30Q252.42 30.30 252.61 30.20L255.00 28.86Q255.76 28.49 256.52 26.56L256.81 26.71Q256.37 28.34 256.37 29.39L257.32 32.25Q257.57 32.25 257.71 32.76Q258.30 32.76 259.72 31.35L259.91 31.54Q258.52 33.01 258.52 33.54L258.52 33.74Q258.52 34.13 258.97 34.50Q259.42 34.86 260.16 35.30L260.01 35.55Q258.59 34.79 258.35 34.79Q258.11 34.79 257.86 34.91Q256.40 35.79 254.22 35.79ZM288.75 60.50Q288.94 60.50 289.09 60.06Q289.09 59.81 288.18 58.35L288.33 58.25Q289.36 59.79 289.70 59.79L291.80 59.79Q292.29 59.79 293.63 58.50L293.75 58.59Q292.38 59.89 292.38 60.40L292.29 61.69Q292.29 64.84 292.90 65.36Q293.31 65.80 293.82 66.86Q294.34 67.92 294.48 67.99Q295.58 68.68 295.95 70.04Q296.02 70.29 296.14 70.41L297.09 71.09L303.08 71.95L303.20 72.00L305.69 70.95Q305.96 70.68 306.42 70.36Q307.30 69.78 307.30 68.99Q307.30 68.21 306.49 66.99L306.69 66.85L307.79 68.26Q308.03 68.07 308.29 67.55Q308.54 67.04 308.54 66.85Q308.54 66.65 308.37 66.46Q308.20 66.26 307.30 65.60L307.40 65.41Q308.67 66.21 308.90 66.21Q309.13 66.21 309.41 65.16Q309.69 64.11 309.69 63.77Q309.69 63.43 309.59 62.89L309.18 61.65Q309.18 61.38 308.84 61.11Q308.50 60.84 308.28 60.84Q307.67 60.84 306.74 63.50L306.49 63.40Q307.13 61.69 307.13 60.60L306.98 59.59Q306.98 59.45 306.88 59.25L305.98 58.25Q305.86 58.13 305.64 58.06L304.74 57.91L304.39 57.86Q303.88 57.86 303.39 59.50L302.83 59.30Q303.15 58.23 303.15 57.93Q303.15 57.47 302.59 57.25L299.83 55.49Q299.68 55.44 299.34 55.44L298.29 55.49Q297.07 55.49 295.63 54.71Q295.39 54.59 294.60 54.58Q293.82 54.57 292.47 54.09Q291.11 53.61 290.10 52.92Q289.09 52.22 288.06 51.10Q286.65 49.56 284.79 46.61Q284.55 46.19 284.19 46.19Q283.84 46.19 282.35 46.56L281.98 45.61Q284.33 44.95 284.33 44.75Q284.38 44.34 284.40 43.51Q284.50 41.60 284.64 41.26L285.33 39.21Q285.55 38.60 286.22 37.54Q286.89 36.47 286.89 36.28Q286.89 36.08 286.13 34.79L286.43 34.59Q287.35 36.01 287.74 36.01Q287.89 36.01 287.99 35.96L288.89 35.64Q289.89 34.89 291.16 33.50Q292.43 32.10 292.43 31.62Q292.43 31.13 291.99 29.86L292.43 29.71Q293.02 31.20 293.36 31.42Q293.75 31.64 294.12 31.64Q294.48 31.64 294.71 31.41Q294.95 31.18 294.95 30.91Q294.95 30.64 294.14 29.20L294.34 29.05Q295.09 30.40 295.29 30.57Q295.48 30.74 295.63 30.76L297.34 30.86Q298.07 30.91 298.75 30.55Q299.44 30.20 299.44 29.63Q299.44 29.05 299.29 28.34L300.10 28.20Q300.29 29.30 300.60 29.65Q300.90 30.00 301.44 30.00L305.79 29.91Q306.42 29.91 306.76 29.58Q307.10 29.25 307.50 28.05L308.18 28.25Q307.84 29.17 307.84 29.80Q307.84 30.42 308.56 30.85Q309.28 31.27 310.36 31.64Q311.45 32.01 312.60 32.78Q313.75 33.54 314.09 33.54Q315.06 33.54 315.04 32.86Q315.04 32.35 313.79 31.35L314.09 31.01Q315.23 31.96 315.58 31.96Q315.92 31.96 316.83 31.41Q317.75 30.86 318.33 30.86Q320.04 30.86 320.04 33.25L320.04 33.74Q320.04 34.11 320.09 34.28Q320.26 34.69 321.78 35.16L321.63 35.64Q320.61 35.30 320.06 35.30Q319.51 35.30 319.06 36.17Q318.60 37.04 318.41 38.38Q318.04 40.89 318.05 42.07Q318.07 43.24 318.16 43.41Q318.41 43.90 319.90 44.41L319.68 44.85Q318.65 44.51 318.07 44.51Q317.48 44.51 316.66 45.62Q315.84 46.73 315.84 47.23Q315.84 47.73 316.09 48.90L315.53 49.00Q315.26 47.75 314.97 47.30Q314.67 46.85 314.18 46.66Q312.87 46.09 312.38 44.92Q311.89 43.75 311.89 41.99Q311.89 41.85 311.28 40.23Q310.67 38.62 310.60 38.50L307.35 35.64Q306.59 35.21 306.59 34.45L306.35 34.50Q306.05 34.50 305.40 34.11Q306.45 34.94 306.45 35.16Q306.45 35.25 306.25 35.25L303.88 34.74Q303.30 34.74 302.49 36.21L302.10 35.96Q302.73 34.86 302.73 34.36Q302.73 33.86 302.29 33.86Q301.27 33.86 299.98 34.55Q298.68 35.23 298.68 35.84Q298.68 36.30 299.19 37.35L298.68 37.55Q298.00 36.01 297.39 36.01L297.09 36.06L295.78 36.40L295.53 36.55Q295.21 36.89 294.53 37.50Q292.94 38.87 292.94 39.11L293.09 43.16Q293.09 43.68 294.53 44.32Q295.97 44.97 296.22 45.17Q296.61 45.46 297.20 45.46Q297.80 45.46 298.29 43.85L298.93 44.04Q298.63 44.97 298.63 45.39Q298.63 45.80 299.29 46.25Q299.95 46.70 300.49 46.70L301.49 46.80Q302.03 46.80 302.33 46.34Q302.64 45.87 302.93 45.09L303.39 45.31Q302.88 46.48 302.88 46.90Q302.88 47.66 304.42 47.66Q304.71 47.66 304.98 47.66Q305.57 47.66 306.54 46.04L306.88 46.31Q306.08 47.66 306.08 48.02Q306.08 48.39 306.37 48.69Q306.67 49.00 307.36 49.01Q308.06 49.02 309.05 49.38Q310.03 49.73 310.90 50.43Q311.77 51.12 312.38 51.75Q312.99 52.37 313.85 53.34Q314.72 54.32 315.23 54.81Q316.28 55.86 316.99 63.70Q316.99 63.82 318.63 64.65L318.75 65.84L316.75 64.99Q316.53 64.99 316.33 65.11L316.38 65.11Q316.21 65.21 316.14 65.55L316.14 65.99Q316.14 66.50 316.42 66.81Q316.70 67.11 317.90 67.60L317.68 68.09Q316.48 67.60 315.97 67.60Q315.45 67.60 314.12 69.43Q312.79 71.26 312.79 71.79Q312.79 72.31 313.89 73.41L313.55 73.80Q312.43 72.75 312.08 72.75Q311.74 72.75 311.51 72.86Q311.28 72.97 311.02 73.13Q310.77 73.29 310.64 73.34Q308.18 75.39 303.83 75.39L300.24 75.24Q300.05 75.24 299.54 77.00L299.44 76.95Q299.78 75.42 299.78 75.28Q299.78 75.15 299.73 75.10L299.54 75.10L293.33 74.66Q292.72 74.66 292.48 75.07Q292.24 75.49 292.24 76.71L291.89 76.76Q291.85 75.15 291.66 75.02Q291.48 74.90 291.24 74.90Q290.80 74.90 290.04 76.56L289.75 76.39Q290.33 75.22 290.33 74.82Q290.33 74.41 289.31 73.21Q288.28 72.00 288.28 71.31L288.28 68.65Q288.28 63.89 288.75 61.16Q288.75 61.04 288.70 60.99Q288.57 60.82 287.08 60.35L287.13 60.11Q288.40 60.50 288.75 60.50ZM334.89 68.70L334.81 68.36Q334.69 68.36 333.57 68.46L333.57 68.21L334.67 68.09Q334.30 67.55 333.72 67.55L331.03 67.55Q330.64 67.55 329.03 68.66Q327.42 69.78 327.42 70.41L327.03 71.85L326.32 71.66L326.83 70.31Q326.83 69.21 328.91 66.43Q329.61 65.50 329.61 65.11L329.27 35.96Q329.27 35.55 328.55 35.18Q327.83 34.81 327.75 34.41Q327.66 34.01 326.94 33.70Q326.22 33.40 325.88 33.40Q325.81 33.40 324.12 34.91L323.54 34.11Q324.88 32.71 324.88 32.54Q324.88 31.91 322.39 30.76L322.44 30.66Q324.17 31.45 324.83 31.45L326.78 31.45Q327.39 31.45 327.80 31.13Q328.20 30.81 328.69 29.66L329.32 29.91Q328.88 31.05 328.88 31.68Q328.88 32.30 329.68 32.75Q330.47 33.20 331.37 33.20L335.03 33.20L336.04 31.81L336.38 32.15Q336.52 32.01 336.52 31.58Q336.52 31.15 335.94 29.96L336.43 29.71Q336.99 30.86 337.30 31.15Q337.62 31.45 338.13 31.45L339.09 31.45Q339.28 31.45 340.10 30.58Q340.92 29.71 340.92 29.41Q340.92 29.10 340.53 27.91L340.77 27.81Q341.16 28.98 341.35 29.26Q341.53 29.54 341.77 29.54L341.92 29.54Q342.41 29.54 344.17 28.86L344.21 28.96Q342.60 29.57 342.07 29.96L341.43 30.54Q341.24 30.76 341.22 31.23Q341.21 31.69 341.06 32.12Q340.92 32.54 340.63 32.74Q340.16 33.06 339.67 33.14Q339.18 33.23 338.29 33.51Q337.40 33.79 337.13 33.86L337.28 35.55L337.28 36.21Q337.28 36.47 339.58 36.55L339.48 37.01Q339.14 37.04 338.72 37.04L338.13 37.04Q337.50 37.04 337.38 37.30Q337.23 37.60 337.23 38.31L337.57 45.95Q337.57 48.36 337.30 53.05Q337.04 57.74 337.01 58.92Q336.99 60.11 337.26 60.47Q337.52 60.84 338.57 61.55L338.33 61.96Q337.04 61.11 336.33 61.11Q335.62 61.11 335.62 61.79L335.62 63.94Q335.62 64.60 337.22 65.03Q338.82 65.45 338.82 66.16L338.77 66.36Q338.77 66.58 339.14 67.26Q339.50 67.94 339.58 68.16Q339.87 69.21 341.19 70.51L340.97 70.75Q339.48 69.19 338.62 68.99L338.57 68.99L338.43 68.95Q337.43 68.95 337.43 71.36L336.82 71.31Q336.82 70.36 336.43 69.48Q336.04 68.60 335.23 68.41L334.72 69.31Q334.89 68.92 334.89 68.70ZM371.41 59.30L372.09 59.25L372.14 59.79Q370.90 59.91 370.63 60.11Q370.36 60.30 370.36 60.79L370.36 61.79Q370.36 62.16 370.43 62.33Q370.61 62.74 372.14 63.06L372.05 63.60Q371.26 63.40 370.95 63.40Q370.63 63.40 370.52 63.43Q370.41 63.45 370.34 63.46Q370.26 63.48 370.19 63.56Q370.12 63.65 370.08 63.67Q370.04 63.70 369.98 63.82Q369.92 63.94 369.92 63.95Q369.92 63.96 369.79 64.36Q369.65 64.75 369.41 65.48L368.99 66.70Q368.85 67.16 368.85 67.21L368.60 69.70Q368.60 70.12 370.29 70.41L370.24 70.80Q369.36 70.65 369.03 70.65Q368.70 70.65 368.57 70.73Q368.43 70.80 368.41 70.85Q368.31 70.97 368.31 71.42Q368.31 71.88 369.41 73.19L369.14 73.41Q367.97 71.90 367.41 71.90L366.09 71.90Q365.33 71.90 362.11 75L361.84 74.76Q364.89 71.58 364.94 71.00L364.94 70.85Q364.87 70.31 364.21 70.31L363.16 70.36Q362.45 70.36 362.22 70.34Q361.99 70.31 361.89 70.36L360.55 71.00Q360.45 71.04 360.08 71.04Q359.72 71.04 359.09 70.79Q358.47 70.53 358.30 70.36L357.30 69.85Q357.42 70.12 358.35 71.36L358.11 71.51Q356.91 69.97 355.87 69.54Q354.83 69.12 353.38 68.14Q351.93 67.16 351.34 66.46L351.10 66.31Q349.63 65.70 348.75 64.65Q347.88 63.60 347.07 61.98Q346.26 60.35 345.85 59.75Q345.43 59.16 344.90 59.16Q344.36 59.16 343.41 59.50L343.24 59.16L344.95 58.30Q344.65 57.06 343.80 57.06Q343.36 57.06 342.26 57.50L342.09 57.10Q343.24 56.64 343.52 56.40Q343.80 56.15 343.80 55.76L343.60 53.34Q343.58 52.93 343.51 52.73Q343.29 52.29 341.70 52.20L341.75 51.44L342.31 51.44Q343.95 51.44 343.95 49.34L343.90 48.10L343.99 47.19Q343.99 46.95 342.70 45.51L343.24 44.75Q344.46 45.90 344.69 45.87Q344.92 45.85 345.19 45.41Q345.68 44.21 347.27 42.30Q348.85 40.38 349.34 39.31Q349.49 39.09 349.49 38.71Q349.49 38.33 348.39 37.16L348.80 36.74Q349.88 37.89 350.66 37.89Q351.44 37.89 353.10 36.58Q354.76 35.28 354.76 34.72Q354.76 34.16 354.15 33.11L354.91 32.64Q355.69 33.96 356.40 33.96Q356.62 33.96 358.54 33.25Q360.47 32.54 361.65 32.54L366.89 32.06Q367.36 32.01 367.69 31.68Q368.02 31.35 368.51 30.20L368.95 30.40Q368.36 31.74 368.36 32.08Q368.36 32.42 368.46 32.59Q368.58 32.84 368.95 32.91L369.90 33.11Q370.04 33.15 370.32 33.15Q370.61 33.15 370.85 32.91L370.65 32.45Q370.70 32.64 370.95 32.86Q371.34 32.52 371.95 31.76L372.00 31.81L371.41 30.81L371.75 30.54Q372.51 31.59 372.89 31.87Q373.27 32.15 373.75 32.15L374.85 32.15Q375.34 32.15 375.79 31.90Q376.25 31.64 377.15 30.76L377.39 31.01Q376.51 31.93 376.26 32.37Q376.00 32.81 376.00 33.30L376.00 34.74Q376.00 34.99 377.95 36.35L377.49 37.11Q375.76 36.11 375.61 36.11Q375.10 36.11 375.10 36.65Q374.76 42.07 373.19 44.48Q372.46 45.61 371.80 46.06Q371.14 46.51 371.14 46.84Q371.14 47.17 371.46 48.41L371.14 48.51Q370.83 46.90 370.69 46.74Q370.56 46.58 370.41 46.56L370.24 46.56L370.09 46.51Q370.00 46.51 368.90 47.85L368.55 47.46Q369.46 46.19 369.46 46.09L369.41 45.85L368.90 44.90Q368.75 44.65 368.75 44.51L369.04 43.09Q369.04 41.04 368.04 39.37Q367.04 37.70 365.31 36.96Q365.50 37.43 366.14 38.75L366.04 38.79Q365.23 37.18 365.05 37.05Q364.87 36.91 364.73 36.84Q364.60 36.77 364.50 36.65Q363.65 36.40 363.00 36.40Q362.35 36.40 361.57 36.76Q360.79 37.11 360.79 37.61Q360.79 38.11 361.30 39.11L360.64 39.45Q359.91 38.01 359.14 38.01Q358.37 38.01 357.57 38.54Q356.76 39.06 355.73 40.10Q354.69 41.14 354.44 41.32Q354.20 41.50 354.10 41.99Q353.74 43.87 353.44 44.38Q353.15 44.90 353.11 45.39Q353.08 45.87 352.59 47.12Q351.86 48.90 351.86 51.21Q351.86 53.52 352.17 53.87Q352.49 54.22 353.49 54.30L353.39 55.10L352.39 55.10Q352.39 56.01 352.81 56.51Q353.22 57.01 353.55 57.01Q353.88 57.01 354.81 56.76L354.86 56.96Q353.20 57.40 353.20 57.69L353.39 58.25Q353.54 58.74 354.10 58.74Q354.66 58.74 355.49 58.45L355.64 59.01Q354.00 59.55 354.00 60.11Q354.00 60.30 354.05 60.40L354.10 60.79L354.25 61.11L354.81 61.65Q354.86 61.69 354.92 61.74Q354.98 61.79 355.00 61.82Q355.03 61.84 355.27 61.84Q355.91 61.84 357.20 60.30L357.54 60.55Q356.35 61.91 356.35 62.70Q356.35 66.21 362.45 66.21Q362.70 66.21 362.79 66.11L363.75 65.45L364.65 64.06Q364.75 63.72 364.75 63.38Q364.75 63.04 363.89 61.74L364.26 61.50Q365.26 63.16 365.84 63.16Q366.65 63.16 366.65 61.30Q366.65 60.69 364.99 59.91L365.26 59.45Q366.36 60.06 366.80 60.06Q367.24 60.06 367.50 59.74L369.24 58.06Q369.87 57.42 370.56 55.49L370.75 55.59Q370.14 57.32 370.14 57.79Q370.14 58.25 370.19 58.40L370.19 58.50Q370.21 58.81 370.26 58.94Q370.39 59.30 371.41 59.30M371.51 33.35Q371.70 33.45 371.85 33.45Q372.29 33.45 372.29 32.76Q372.29 32.64 372.19 32.25Q371.68 32.81 371.51 33.35M370.65 32.45Q370.56 32.25 370.56 32.20L370.65 32.45M368.60 32.76L368.55 32.69L368.55 32.64L368.60 32.76Z"/></g><g transform="translate(0, 72.4365234375)"><path d=""/></g></g></g></svg>